<?xml version="1.0" encoding="utf-8" standalone="no"?>
<!DOCTYPE svg PUBLIC "-//W3C//DTD SVG 1.1//EN"
  "http://www.w3.org/Graphics/SVG/1.1/DTD/svg11.dtd">
<svg xmlns:xlink="http://www.w3.org/1999/xlink" width="144pt" height="79.2pt" viewBox="0 0 144 79.2" xmlns="http://www.w3.org/2000/svg" version="1.1">
 <metadata>
  <rdf:RDF xmlns:dc="http://purl.org/dc/elements/1.1/" xmlns:cc="http://creativecommons.org/ns#" xmlns:rdf="http://www.w3.org/1999/02/22-rdf-syntax-ns#">
   <cc:Work>
    <dc:type rdf:resource="http://purl.org/dc/dcmitype/StillImage"/>
    <dc:date>2022-11-26T14:28:00.129440</dc:date>
    <dc:format>image/svg+xml</dc:format>
    <dc:creator>
     <cc:Agent>
      <dc:title>Matplotlib v3.6.2, https://matplotlib.org/</dc:title>
     </cc:Agent>
    </dc:creator>
   </cc:Work>
  </rdf:RDF>
 </metadata>
 <defs>
  <style type="text/css">*{stroke-linejoin: round; stroke-linecap: butt}</style>
 </defs>
 <g id="figure_1">
  <g id="patch_1">
   <path d="M 0 79.2 
L 144 79.2 
L 144 0 
L 0 0 
L 0 79.2 
z
" style="fill: none"/>
  </g>
  <g id="axes_1">
   <g id="PathCollection_1">
    <path d="M 85.318604 48.386462 
L 86.323692 48.752045 
L 87.569231 48.93072 
L 88.814769 48.892485 
L 90.060308 48.617309 
L 90.581038 48.386462 
L 91.305846 48.009936 
L 92.220419 47.140923 
L 92.551385 46.629627 
L 92.917209 45.895385 
L 93.248004 44.649846 
L 93.362906 43.404308 
L 93.308998 42.158769 
L 93.063548 40.913231 
L 92.551385 39.713297 
L 92.533465 39.667692 
L 91.740753 38.422154 
L 91.305846 37.951962 
L 90.639882 37.176615 
L 90.060308 36.591173 
L 89.486507 35.931077 
L 88.814769 35.126145 
L 88.496488 34.685538 
L 87.718659 33.44 
L 87.569231 33.15182 
L 87.106584 32.194462 
L 86.610812 30.948923 
L 86.323692 30.007778 
L 86.229762 29.703385 
L 86.004384 28.457846 
L 85.976762 27.212308 
L 86.174828 25.966769 
L 86.323692 25.531575 
L 86.606626 24.721231 
L 87.258043 23.475692 
L 87.569231 23.019446 
L 88.156852 22.230154 
L 88.814769 21.496091 
L 89.352424 20.984615 
L 90.060308 20.36732 
L 90.927683 19.739077 
L 91.305846 19.4529 
L 92.551385 18.630985 
L 92.784808 18.493538 
L 93.796923 17.70601 
L 94.355851 17.248 
L 95.042462 16.319682 
L 95.259255 16.002462 
L 95.702987 14.756923 
L 95.818909 13.511385 
L 95.656097 12.265846 
L 95.134638 11.020308 
L 95.042462 10.895023 
L 94.048487 9.774769 
L 93.796923 9.588648 
L 92.551385 8.869954 
L 91.604932 8.529231 
L 91.305846 8.430669 
L 90.060308 8.227254 
L 88.814769 8.285624 
L 87.979678 8.529231 
L 87.569231 8.63518 
L 86.323692 9.235793 
L 85.539484 9.774769 
L 85.078154 10.061671 
L 83.832615 10.954871 
L 83.742816 11.020308 
L 82.587077 11.788564 
L 81.770237 12.265846 
L 81.341538 12.506166 
L 80.096 13.039274 
L 78.850462 13.358274 
L 77.604923 13.399073 
L 76.359385 13.072973 
L 75.113846 12.279508 
L 75.099445 12.265846 
L 74.047562 11.020308 
L 73.868308 10.746487 
L 73.336944 9.774769 
L 72.794776 8.529231 
L 72.622769 8.064858 
L 72.329679 7.283692 
L 71.888348 6.038154 
L 71.405805 4.792615 
L 71.377231 4.72574 
L 70.679709 3.547077 
L 70.131692 2.922371 
L 69.154247 2.301538 
L 68.886154 2.177025 
L 67.640615 1.845294 
L 66.395077 1.695835 
L 65.149538 1.659133 
L 63.904 1.718505 
L 62.658462 1.896464 
L 61.412923 2.282113 
L 61.375546 2.301538 
L 60.253503 3.547077 
L 60.167385 4.187331 
L 60.115546 4.792615 
L 60.167385 5.083178 
L 60.32753 6.038154 
L 60.688305 7.283692 
L 61.079017 8.529231 
L 61.412923 9.699016 
L 61.43494 9.774769 
L 61.698265 11.020308 
L 61.783112 12.265846 
L 61.606808 13.511385 
L 61.412923 13.97687 
L 60.975634 14.756923 
L 60.167385 15.52202 
L 59.147873 16.002462 
L 58.921846 16.084903 
L 57.676308 16.231159 
L 56.430769 16.147837 
L 55.623123 16.002462 
L 55.185231 15.927641 
L 53.939692 15.662106 
L 52.694154 15.408894 
L 51.448615 15.245571 
L 50.203077 15.306958 
L 48.957538 15.906097 
L 48.8675 16.002462 
L 48.234595 17.248 
L 47.994038 18.493538 
L 47.956058 19.739077 
L 48.083917 20.984615 
L 48.425644 22.230154 
L 48.957538 23.180486 
L 49.179881 23.475692 
L 50.203077 24.304794 
L 50.907028 24.721231 
L 51.448615 24.970558 
L 52.694154 25.526986 
L 53.553229 25.966769 
L 53.939692 26.17016 
L 55.185231 27.074279 
L 55.323752 27.212308 
L 56.254649 28.457846 
L 56.430769 28.863248 
L 56.720472 29.703385 
L 56.851767 30.948923 
L 56.700062 32.194462 
L 56.430769 32.997514 
L 56.257521 33.44 
L 55.525413 34.685538 
L 55.185231 35.170135 
L 54.554063 35.931077 
L 53.939692 36.723379 
L 53.528464 37.176615 
L 52.724779 38.422154 
L 52.694154 38.515758 
L 52.250581 39.667692 
L 52.254308 40.913231 
L 52.694154 42.044864 
L 52.734628 42.158769 
L 53.62037 43.404308 
L 53.939692 43.712788 
L 54.978676 44.649846 
L 55.185231 44.811627 
L 56.430769 45.665292 
L 56.871704 45.895385 
L 57.676308 46.355317 
L 58.921846 46.804218 
L 60.167385 46.916991 
L 61.412923 46.522678 
L 62.094012 45.895385 
L 62.658462 45.380772 
L 63.164368 44.649846 
L 63.904 43.655955 
L 64.063235 43.404308 
L 64.978509 42.158769 
L 65.149538 41.951598 
L 66.051804 40.913231 
L 66.395077 40.550296 
L 67.360405 39.667692 
L 67.640615 39.415947 
L 68.886154 38.526153 
L 69.107601 38.422154 
L 70.131692 37.933205 
L 71.377231 37.719537 
L 72.622769 37.923322 
L 73.697191 38.422154 
L 73.868308 38.500493 
L 75.113846 39.320007 
L 75.573505 39.667692 
L 76.359385 40.22774 
L 77.278476 40.913231 
L 77.604923 41.15869 
L 78.850462 42.140434 
L 78.872743 42.158769 
L 80.096 43.304138 
L 80.199192 43.404308 
L 81.284569 44.649846 
L 81.341538 44.729181 
L 82.28298 45.895385 
L 82.587077 46.303531 
L 83.42402 47.140923 
L 83.832615 47.547931 
L 85.078154 48.306101 
z
M 85.078154 44.965879 
L 84.646582 44.649846 
L 83.832615 44.035603 
L 83.176634 43.404308 
L 82.587077 42.86597 
L 81.857098 42.158769 
L 81.341538 41.714671 
L 80.384289 40.913231 
L 80.096 40.692835 
L 78.850462 39.749874 
L 78.742764 39.667692 
L 77.604923 38.775978 
L 77.161743 38.422154 
L 76.359385 37.73273 
L 75.683607 37.176615 
L 75.113846 36.694168 
L 74.009403 35.931077 
L 73.868308 35.84041 
L 72.622769 35.32423 
L 71.377231 35.149102 
L 70.131692 35.326229 
L 68.886154 35.854705 
L 68.768811 35.931077 
L 67.640615 36.721985 
L 67.117873 37.176615 
L 66.395077 37.819477 
L 65.78208 38.422154 
L 65.149538 39.063344 
L 64.577596 39.667692 
L 63.904 40.429975 
L 63.459875 40.913231 
L 62.658462 41.845134 
L 62.327517 42.158769 
L 61.412923 43.019976 
L 60.703039 43.404308 
L 60.167385 43.673104 
L 58.921846 43.769943 
L 57.676308 43.414669 
L 57.658337 43.404308 
L 56.430769 42.520488 
L 56.08113 42.158769 
L 55.398492 40.913231 
L 55.283133 39.667692 
L 55.632868 38.422154 
L 56.291596 37.176615 
L 56.430769 36.9696 
L 57.079722 35.931077 
L 57.676308 34.87665 
L 57.777441 34.685538 
L 58.298252 33.44 
L 58.602909 32.194462 
L 58.707674 30.948923 
L 58.617524 29.703385 
L 58.325682 28.457846 
L 57.811608 27.212308 
L 57.676308 26.965322 
L 56.97825 25.966769 
L 56.430769 25.337521 
L 55.681208 24.721231 
L 55.185231 24.319737 
L 53.939692 23.555818 
L 53.796226 23.475692 
L 52.694154 22.684155 
L 52.120043 22.230154 
L 51.448615 21.32974 
L 51.239301 20.984615 
L 51.037738 19.739077 
L 51.448615 18.611707 
L 51.53729 18.493538 
L 52.694154 17.993907 
L 53.939692 17.936114 
L 55.185231 18.063365 
L 56.430769 18.223353 
L 57.676308 18.319407 
L 58.921846 18.265278 
L 60.167385 17.9661 
L 61.412923 17.324194 
L 61.511476 17.248 
L 62.658462 16.147996 
L 62.778067 16.002462 
L 63.468518 14.756923 
L 63.791976 13.511385 
L 63.846964 12.265846 
L 63.724788 11.020308 
L 63.499536 9.774769 
L 63.241412 8.529231 
L 63.048752 7.283692 
L 63.114885 6.038154 
L 63.884952 4.792615 
L 63.904 4.778957 
L 65.149538 4.368989 
L 66.395077 4.366735 
L 67.640615 4.718167 
L 67.76492 4.792615 
L 68.886154 5.66591 
L 69.17961 6.038154 
L 69.944956 7.283692 
L 70.131692 7.646371 
L 70.489504 8.529231 
L 70.983783 9.774769 
L 71.377231 10.641244 
L 71.539734 11.020308 
L 72.208929 12.265846 
L 72.622769 12.835775 
L 73.16345 13.511385 
L 73.868308 14.184228 
L 74.662429 14.756923 
L 75.113846 15.025486 
L 76.359385 15.476258 
L 77.604923 15.609519 
L 78.850462 15.471192 
L 80.096 15.109256 
L 80.89511 14.756923 
L 81.341538 14.567331 
L 82.587077 13.911182 
L 83.2468 13.511385 
L 83.832615 13.157626 
L 85.078154 12.382121 
L 85.287133 12.265846 
L 86.323692 11.694766 
L 87.569231 11.181976 
L 88.437605 11.020308 
L 88.814769 10.952557 
L 89.486274 11.020308 
L 90.060308 11.100535 
L 91.305846 11.8203 
L 91.737757 12.265846 
L 92.232201 13.511385 
L 92.128526 14.756923 
L 91.530152 16.002462 
L 91.305846 16.263624 
L 90.466212 17.248 
L 90.060308 17.606591 
L 89.133155 18.493538 
L 88.814769 18.768999 
L 87.826426 19.739077 
L 87.569231 19.998451 
L 86.692234 20.984615 
L 86.323692 21.448006 
L 85.735552 22.230154 
L 85.078154 23.267423 
L 84.948181 23.475692 
L 84.324748 24.721231 
L 83.897619 25.966769 
L 83.832615 26.357094 
L 83.691296 27.212308 
L 83.721828 28.457846 
L 83.832615 28.992734 
L 83.978868 29.703385 
L 84.408377 30.948923 
L 84.953285 32.194462 
L 85.078154 32.445915 
L 85.552251 33.44 
L 86.218325 34.685538 
L 86.323692 34.865688 
L 86.979949 35.931077 
L 87.569231 36.772088 
L 87.878516 37.176615 
L 88.814769 38.378814 
L 88.850261 38.422154 
L 89.692042 39.667692 
L 90.060308 40.454565 
L 90.263285 40.913231 
L 90.48107 42.158769 
L 90.344342 43.404308 
L 90.060308 44.060172 
L 89.654858 44.649846 
L 88.814769 45.308245 
L 87.569231 45.640498 
L 86.323692 45.501109 
z
" clip-path="url(#pffa2fe50d2)" style="fill: #1a9641"/>
   </g>
   <g id="PathCollection_2">
    <path d="M 84.646582 44.649846 
L 85.078154 44.965879 
L 86.323692 45.501109 
L 87.569231 45.640498 
L 88.814769 45.308245 
L 89.654858 44.649846 
L 90.060308 44.060172 
L 90.344342 43.404308 
L 90.48107 42.158769 
L 90.263285 40.913231 
L 90.060308 40.454565 
L 89.692042 39.667692 
L 88.850261 38.422154 
L 88.814769 38.378814 
L 87.878516 37.176615 
L 87.569231 36.772088 
L 86.979949 35.931077 
L 86.323692 34.865688 
L 86.218325 34.685538 
L 85.552251 33.44 
L 85.078154 32.445915 
L 84.953285 32.194462 
L 84.408377 30.948923 
L 83.978868 29.703385 
L 83.832615 28.992734 
L 83.721828 28.457846 
L 83.691296 27.212308 
L 83.832615 26.357094 
L 83.897619 25.966769 
L 84.324748 24.721231 
L 84.948181 23.475692 
L 85.078154 23.267423 
L 85.735552 22.230154 
L 86.323692 21.448006 
L 86.692234 20.984615 
L 87.569231 19.998451 
L 87.826426 19.739077 
L 88.814769 18.768999 
L 89.133155 18.493538 
L 90.060308 17.606591 
L 90.466212 17.248 
L 91.305846 16.263624 
L 91.530152 16.002462 
L 92.128526 14.756923 
L 92.232201 13.511385 
L 91.737757 12.265846 
L 91.305846 11.8203 
L 90.060308 11.100535 
L 89.486274 11.020308 
L 88.814769 10.952557 
L 88.437605 11.020308 
L 87.569231 11.181976 
L 86.323692 11.694766 
L 85.287133 12.265846 
L 85.078154 12.382121 
L 83.832615 13.157626 
L 83.2468 13.511385 
L 82.587077 13.911182 
L 81.341538 14.567331 
L 80.89511 14.756923 
L 80.096 15.109256 
L 78.850462 15.471192 
L 77.604923 15.609519 
L 76.359385 15.476258 
L 75.113846 15.025486 
L 74.662429 14.756923 
L 73.868308 14.184228 
L 73.16345 13.511385 
L 72.622769 12.835775 
L 72.208929 12.265846 
L 71.539734 11.020308 
L 71.377231 10.641244 
L 70.983783 9.774769 
L 70.489504 8.529231 
L 70.131692 7.646371 
L 69.944956 7.283692 
L 69.17961 6.038154 
L 68.886154 5.66591 
L 67.76492 4.792615 
L 67.640615 4.718167 
L 66.395077 4.366735 
L 65.149538 4.368989 
L 63.904 4.778957 
L 63.884952 4.792615 
L 63.114885 6.038154 
L 63.048752 7.283692 
L 63.241412 8.529231 
L 63.499536 9.774769 
L 63.724788 11.020308 
L 63.846964 12.265846 
L 63.791976 13.511385 
L 63.468518 14.756923 
L 62.778067 16.002462 
L 62.658462 16.147996 
L 61.511476 17.248 
L 61.412923 17.324194 
L 60.167385 17.9661 
L 58.921846 18.265278 
L 57.676308 18.319407 
L 56.430769 18.223353 
L 55.185231 18.063365 
L 53.939692 17.936114 
L 52.694154 17.993907 
L 51.53729 18.493538 
L 51.448615 18.611707 
L 51.037738 19.739077 
L 51.239301 20.984615 
L 51.448615 21.32974 
L 52.120043 22.230154 
L 52.694154 22.684155 
L 53.796226 23.475692 
L 53.939692 23.555818 
L 55.185231 24.319737 
L 55.681208 24.721231 
L 56.430769 25.337521 
L 56.97825 25.966769 
L 57.676308 26.965322 
L 57.811608 27.212308 
L 58.325682 28.457846 
L 58.617524 29.703385 
L 58.707674 30.948923 
L 58.602909 32.194462 
L 58.298252 33.44 
L 57.777441 34.685538 
L 57.676308 34.87665 
L 57.079722 35.931077 
L 56.430769 36.9696 
L 56.291596 37.176615 
L 55.632868 38.422154 
L 55.283133 39.667692 
L 55.398492 40.913231 
L 56.08113 42.158769 
L 56.430769 42.520488 
L 57.658337 43.404308 
L 57.676308 43.414669 
L 58.921846 43.769943 
L 60.167385 43.673104 
L 60.703039 43.404308 
L 61.412923 43.019976 
L 62.327517 42.158769 
L 62.658462 41.845134 
L 63.459875 40.913231 
L 63.904 40.429975 
L 64.577596 39.667692 
L 65.149538 39.063344 
L 65.78208 38.422154 
L 66.395077 37.819477 
L 67.117873 37.176615 
L 67.640615 36.721985 
L 68.768811 35.931077 
L 68.886154 35.854705 
L 70.131692 35.326229 
L 71.377231 35.149102 
L 72.622769 35.32423 
L 73.868308 35.84041 
L 74.009403 35.931077 
L 75.113846 36.694168 
L 75.683607 37.176615 
L 76.359385 37.73273 
L 77.161743 38.422154 
L 77.604923 38.775978 
L 78.742764 39.667692 
L 78.850462 39.749874 
L 80.096 40.692835 
L 80.384289 40.913231 
L 81.341538 41.714671 
L 81.857098 42.158769 
L 82.587077 42.86597 
L 83.176634 43.404308 
L 83.832615 44.035603 
z
M 83.832615 40.171222 
L 82.91669 39.667692 
L 82.587077 39.51151 
L 81.341538 38.783675 
L 80.769363 38.422154 
L 80.096 37.995781 
L 78.947255 37.176615 
L 78.850462 37.102566 
L 77.604923 36.019534 
L 77.506303 35.931077 
L 76.359385 34.915074 
L 76.064277 34.685538 
L 75.113846 34.039635 
L 73.868308 33.441348 
L 73.863988 33.44 
L 72.622769 33.100254 
L 71.377231 32.969935 
L 70.131692 33.051657 
L 68.886154 33.366253 
L 68.705403 33.44 
L 67.640615 33.956844 
L 66.548865 34.685538 
L 66.395077 34.803877 
L 65.149538 35.83745 
L 65.026658 35.931077 
L 63.904 36.92482 
L 63.574538 37.176615 
L 62.658462 38.001656 
L 62.077068 38.422154 
L 61.412923 38.969267 
L 60.167385 39.554951 
L 59.276768 38.422154 
L 59.556022 37.176615 
L 59.940827 35.931077 
L 60.167385 35.112653 
L 60.295843 34.685538 
L 60.566305 33.44 
L 60.68263 32.194462 
L 60.668812 30.948923 
L 60.534795 29.703385 
L 60.289183 28.457846 
L 60.167385 28.000314 
L 59.957677 27.212308 
L 59.543443 25.966769 
L 59.076455 24.721231 
L 58.921846 24.175022 
L 58.634154 23.475692 
L 58.544361 22.230154 
L 58.921846 21.792878 
L 59.700261 20.984615 
L 60.167385 20.766916 
L 61.412923 19.978553 
L 61.704281 19.739077 
L 62.658462 19.055936 
L 63.285662 18.493538 
L 63.904 17.893753 
L 64.524244 17.248 
L 65.149538 16.423798 
L 65.526027 16.002462 
L 66.322913 14.756923 
L 66.395077 14.568873 
L 67.243823 13.511385 
L 67.640615 12.844578 
L 68.886154 13.151873 
L 69.197859 13.511385 
L 70.131692 14.135297 
L 70.774302 14.756923 
L 71.377231 15.164949 
L 72.471273 16.002462 
L 72.622769 16.094599 
L 73.868308 16.836301 
L 74.763755 17.248 
L 75.113846 17.396625 
L 76.359385 17.737649 
L 77.604923 17.863844 
L 78.850462 17.780436 
L 80.096 17.497986 
L 80.798349 17.248 
L 81.341538 17.066696 
L 82.587077 16.58026 
L 83.75347 16.002462 
L 83.832615 15.966115 
L 85.078154 15.532956 
L 86.323692 15.306474 
L 87.00778 16.002462 
L 86.485969 17.248 
L 86.323692 17.452934 
L 85.592842 18.493538 
L 85.078154 19.193348 
L 84.715133 19.739077 
L 83.903181 20.984615 
L 83.832615 21.093714 
L 83.128058 22.230154 
L 82.587077 23.291957 
L 82.499321 23.475692 
L 81.98828 24.721231 
L 81.638349 25.966769 
L 81.44883 27.212308 
L 81.435784 28.457846 
L 81.614879 29.703385 
L 81.990983 30.948923 
L 82.561274 32.194462 
L 82.587077 32.244706 
L 83.140274 33.44 
L 83.766798 34.685538 
L 83.832615 34.830815 
L 84.302265 35.931077 
L 84.867476 37.176615 
L 85.078154 37.677598 
L 85.408952 38.422154 
L 85.848857 39.667692 
L 85.078154 40.763375 
z
" clip-path="url(#pffa2fe50d2)" style="fill: #a6d96a"/>
   </g>
   <g id="PathCollection_3">
    <path d="M 82.91669 39.667692 
L 83.832615 40.171222 
L 85.078154 40.763375 
L 85.848857 39.667692 
L 85.408952 38.422154 
L 85.078154 37.677598 
L 84.867476 37.176615 
L 84.302265 35.931077 
L 83.832615 34.830815 
L 83.766798 34.685538 
L 83.140274 33.44 
L 82.587077 32.244706 
L 82.561274 32.194462 
L 81.990983 30.948923 
L 81.614879 29.703385 
L 81.435784 28.457846 
L 81.44883 27.212308 
L 81.638349 25.966769 
L 81.98828 24.721231 
L 82.499321 23.475692 
L 82.587077 23.291957 
L 83.128058 22.230154 
L 83.832615 21.093714 
L 83.903181 20.984615 
L 84.715133 19.739077 
L 85.078154 19.193348 
L 85.592842 18.493538 
L 86.323692 17.452934 
L 86.485969 17.248 
L 87.00778 16.002462 
L 86.323692 15.306474 
L 85.078154 15.532956 
L 83.832615 15.966115 
L 83.75347 16.002462 
L 82.587077 16.58026 
L 81.341538 17.066696 
L 80.798349 17.248 
L 80.096 17.497986 
L 78.850462 17.780436 
L 77.604923 17.863844 
L 76.359385 17.737649 
L 75.113846 17.396625 
L 74.763755 17.248 
L 73.868308 16.836301 
L 72.622769 16.094599 
L 72.471273 16.002462 
L 71.377231 15.164949 
L 70.774302 14.756923 
L 70.131692 14.135297 
L 69.197859 13.511385 
L 68.886154 13.151873 
L 67.640615 12.844578 
L 67.243823 13.511385 
L 66.395077 14.568873 
L 66.322913 14.756923 
L 65.526027 16.002462 
L 65.149538 16.423798 
L 64.524244 17.248 
L 63.904 17.893753 
L 63.285662 18.493538 
L 62.658462 19.055936 
L 61.704281 19.739077 
L 61.412923 19.978553 
L 60.167385 20.766916 
L 59.700261 20.984615 
L 58.921846 21.792878 
L 58.544361 22.230154 
L 58.634154 23.475692 
L 58.921846 24.175022 
L 59.076455 24.721231 
L 59.543443 25.966769 
L 59.957677 27.212308 
L 60.167385 28.000314 
L 60.289183 28.457846 
L 60.534795 29.703385 
L 60.668812 30.948923 
L 60.68263 32.194462 
L 60.566305 33.44 
L 60.295843 34.685538 
L 60.167385 35.112653 
L 59.940827 35.931077 
L 59.556022 37.176615 
L 59.276768 38.422154 
L 60.167385 39.554951 
L 61.412923 38.969267 
L 62.077068 38.422154 
L 62.658462 38.001656 
L 63.574538 37.176615 
L 63.904 36.92482 
L 65.026658 35.931077 
L 65.149538 35.83745 
L 66.395077 34.803877 
L 66.548865 34.685538 
L 67.640615 33.956844 
L 68.705403 33.44 
L 68.886154 33.366253 
L 70.131692 33.051657 
L 71.377231 32.969935 
L 72.622769 33.100254 
L 73.863988 33.44 
L 73.868308 33.441348 
L 75.113846 34.039635 
L 76.064277 34.685538 
L 76.359385 34.915074 
L 77.506303 35.931077 
L 77.604923 36.019534 
L 78.850462 37.102566 
L 78.947255 37.176615 
L 80.096 37.995781 
L 80.769363 38.422154 
L 81.341538 38.783675 
L 82.587077 39.51151 
z
M 63.904 31.185633 
L 63.740534 30.948923 
L 63.07241 29.703385 
L 62.658462 28.664094 
L 62.602142 28.457846 
L 62.284372 27.212308 
L 62.040734 25.966769 
L 61.951254 24.721231 
L 62.143884 23.475692 
L 62.658462 22.448956 
L 62.768323 22.230154 
L 63.775435 20.984615 
L 63.904 20.860419 
L 65.013868 19.739077 
L 65.149538 19.60936 
L 66.395077 18.533052 
L 66.458793 18.493538 
L 67.640615 17.736523 
L 68.886154 17.423028 
L 70.131692 17.553329 
L 71.377231 17.98661 
L 72.465005 18.493538 
L 72.622769 18.561427 
L 73.868308 19.140011 
L 75.113846 19.660744 
L 75.350421 19.739077 
L 76.359385 20.135202 
L 77.604923 20.583885 
L 78.565047 20.984615 
L 78.850462 21.23491 
L 79.506535 22.230154 
L 79.596218 23.475692 
L 79.476834 24.721231 
L 79.3017 25.966769 
L 79.119403 27.212308 
L 78.942264 28.457846 
L 78.850462 29.122095 
L 78.727736 29.703385 
L 78.255437 30.948923 
L 77.604923 31.530497 
L 76.359385 31.59498 
L 75.113846 31.429732 
L 73.868308 31.242766 
L 72.622769 31.091369 
L 71.377231 31.00385 
L 70.131692 31.000997 
L 68.886154 31.097314 
L 67.640615 31.291079 
L 66.395077 31.536767 
L 65.149538 31.672075 
z
" clip-path="url(#pffa2fe50d2)" style="fill: #ffffbf"/>
   </g>
   <g id="PathCollection_4">
    <path d="M 63.740534 30.948923 
L 63.904 31.185633 
L 65.149538 31.672075 
L 66.395077 31.536767 
L 67.640615 31.291079 
L 68.886154 31.097314 
L 70.131692 31.000997 
L 71.377231 31.00385 
L 72.622769 31.091369 
L 73.868308 31.242766 
L 75.113846 31.429732 
L 76.359385 31.59498 
L 77.604923 31.530497 
L 78.255437 30.948923 
L 78.727736 29.703385 
L 78.850462 29.122095 
L 78.942264 28.457846 
L 79.119403 27.212308 
L 79.3017 25.966769 
L 79.476834 24.721231 
L 79.596218 23.475692 
L 79.506535 22.230154 
L 78.850462 21.23491 
L 78.565047 20.984615 
L 77.604923 20.583885 
L 76.359385 20.135202 
L 75.350421 19.739077 
L 75.113846 19.660744 
L 73.868308 19.140011 
L 72.622769 18.561427 
L 72.465005 18.493538 
L 71.377231 17.98661 
L 70.131692 17.553329 
L 68.886154 17.423028 
L 67.640615 17.736523 
L 66.458793 18.493538 
L 66.395077 18.533052 
L 65.149538 19.60936 
L 65.013868 19.739077 
L 63.904 20.860419 
L 63.775435 20.984615 
L 62.768323 22.230154 
L 62.658462 22.448956 
L 62.143884 23.475692 
L 61.951254 24.721231 
L 62.040734 25.966769 
L 62.284372 27.212308 
L 62.602142 28.457846 
L 62.658462 28.664094 
L 63.07241 29.703385 
z
M 67.640615 28.524978 
L 67.421909 28.457846 
L 66.395077 27.981099 
L 65.575827 27.212308 
L 65.149538 26.393954 
L 64.993469 25.966769 
L 64.897395 24.721231 
L 65.149538 23.613918 
L 65.183998 23.475692 
L 65.916704 22.230154 
L 66.395077 21.689683 
L 67.203319 20.984615 
L 67.640615 20.681502 
L 68.886154 20.216968 
L 70.131692 20.176289 
L 71.377231 20.459866 
L 72.622769 20.9361 
L 72.727373 20.984615 
L 73.868308 21.598244 
L 74.921354 22.230154 
L 75.113846 22.397241 
L 76.144306 23.475692 
L 76.359385 23.990989 
L 76.602217 24.721231 
L 76.608489 25.966769 
L 76.359385 26.9219 
L 76.255711 27.212308 
L 75.128144 28.457846 
L 75.113846 28.466614 
L 73.868308 28.838277 
L 72.622769 28.939623 
L 71.377231 28.925379 
L 70.131692 28.855777 
L 68.886154 28.738521 
z
" clip-path="url(#pffa2fe50d2)" style="fill: #fdae61"/>
   </g>
   <g id="PathCollection_5">
    <path d="M 67.421909 28.457846 
L 67.640615 28.524978 
L 68.886154 28.738521 
L 70.131692 28.855777 
L 71.377231 28.925379 
L 72.622769 28.939623 
L 73.868308 28.838277 
L 75.113846 28.466614 
L 75.128144 28.457846 
L 76.255711 27.212308 
L 76.359385 26.9219 
L 76.608489 25.966769 
L 76.602217 24.721231 
L 76.359385 23.990989 
L 76.144306 23.475692 
L 75.113846 22.397241 
L 74.921354 22.230154 
L 73.868308 21.598244 
L 72.727373 20.984615 
L 72.622769 20.9361 
L 71.377231 20.459866 
L 70.131692 20.176289 
L 68.886154 20.216968 
L 67.640615 20.681502 
L 67.203319 20.984615 
L 66.395077 21.689683 
L 65.916704 22.230154 
L 65.183998 23.475692 
L 65.149538 23.613918 
L 64.897395 24.721231 
L 64.993469 25.966769 
L 65.149538 26.393954 
L 65.575827 27.212308 
L 66.395077 27.981099 
z
" clip-path="url(#pffa2fe50d2)" style="fill: #d7191c"/>
   </g>
   <g id="PathCollection_6">
    <path d="M 85.318604 48.386462 
L 86.323692 48.752045 
L 87.569231 48.93072 
L 88.814769 48.892485 
L 90.060308 48.617309 
L 90.581038 48.386462 
L 91.305846 48.009936 
L 92.220419 47.140923 
L 92.551385 46.629627 
L 92.917209 45.895385 
L 93.248004 44.649846 
L 93.362906 43.404308 
L 93.308998 42.158769 
L 93.063548 40.913231 
L 92.551385 39.713297 
L 92.533465 39.667692 
L 91.740753 38.422154 
L 91.305846 37.951962 
L 90.639882 37.176615 
L 90.060308 36.591173 
L 89.486507 35.931077 
L 88.814769 35.126145 
L 88.496488 34.685538 
L 87.718659 33.44 
L 87.569231 33.15182 
L 87.106584 32.194462 
L 86.610812 30.948923 
L 86.323692 30.007778 
L 86.229762 29.703385 
L 86.004384 28.457846 
L 85.976762 27.212308 
L 86.174828 25.966769 
L 86.323692 25.531575 
L 86.606626 24.721231 
L 87.258043 23.475692 
L 87.569231 23.019446 
L 88.156852 22.230154 
L 88.814769 21.496091 
L 89.352424 20.984615 
L 90.060308 20.36732 
L 90.927683 19.739077 
L 91.305846 19.4529 
L 92.551385 18.630985 
L 92.784808 18.493538 
L 93.796923 17.70601 
L 94.355851 17.248 
L 95.042462 16.319682 
L 95.259255 16.002462 
L 95.702987 14.756923 
L 95.818909 13.511385 
L 95.656097 12.265846 
L 95.134638 11.020308 
L 95.042462 10.895023 
L 94.048487 9.774769 
L 93.796923 9.588648 
L 92.551385 8.869954 
L 91.604932 8.529231 
L 91.305846 8.430669 
L 90.060308 8.227254 
L 88.814769 8.285624 
L 87.979678 8.529231 
L 87.569231 8.63518 
L 86.323692 9.235793 
L 85.539484 9.774769 
L 85.078154 10.061671 
L 83.832615 10.954871 
L 83.742816 11.020308 
L 82.587077 11.788564 
L 81.770237 12.265846 
L 81.341538 12.506166 
L 80.096 13.039274 
L 78.850462 13.358274 
L 77.604923 13.399073 
L 76.359385 13.072973 
L 75.113846 12.279508 
L 75.099445 12.265846 
L 74.047562 11.020308 
L 73.868308 10.746487 
L 73.336944 9.774769 
L 72.794776 8.529231 
L 72.622769 8.064858 
L 72.329679 7.283692 
L 71.888348 6.038154 
L 71.405805 4.792615 
L 71.377231 4.72574 
L 70.679709 3.547077 
L 70.131692 2.922371 
L 69.154247 2.301538 
L 68.886154 2.177025 
L 67.640615 1.845294 
L 66.395077 1.695835 
L 65.149538 1.659133 
L 63.904 1.718505 
L 62.658462 1.896464 
L 61.412923 2.282113 
L 61.375546 2.301538 
L 60.253503 3.547077 
L 60.167385 4.187331 
L 60.115546 4.792615 
L 60.167385 5.083178 
L 60.32753 6.038154 
L 60.688305 7.283692 
L 61.079017 8.529231 
L 61.412923 9.699016 
L 61.43494 9.774769 
L 61.698265 11.020308 
L 61.783112 12.265846 
L 61.606808 13.511385 
L 61.412923 13.97687 
L 60.975634 14.756923 
L 60.167385 15.52202 
L 59.147873 16.002462 
L 58.921846 16.084903 
L 57.676308 16.231159 
L 56.430769 16.147837 
L 55.623123 16.002462 
L 55.185231 15.927641 
L 53.939692 15.662106 
L 52.694154 15.408894 
L 51.448615 15.245571 
L 50.203077 15.306958 
L 48.957538 15.906097 
L 48.8675 16.002462 
L 48.234595 17.248 
L 47.994038 18.493538 
L 47.956058 19.739077 
L 48.083917 20.984615 
L 48.425644 22.230154 
L 48.957538 23.180486 
L 49.179881 23.475692 
L 50.203077 24.304794 
L 50.907028 24.721231 
L 51.448615 24.970558 
L 52.694154 25.526986 
L 53.553229 25.966769 
L 53.939692 26.17016 
L 55.185231 27.074279 
L 55.323752 27.212308 
L 56.254649 28.457846 
L 56.430769 28.863248 
L 56.720472 29.703385 
L 56.851767 30.948923 
L 56.700062 32.194462 
L 56.430769 32.997514 
L 56.257521 33.44 
L 55.525413 34.685538 
L 55.185231 35.170135 
L 54.554063 35.931077 
L 53.939692 36.723379 
L 53.528464 37.176615 
L 52.724779 38.422154 
L 52.694154 38.515758 
L 52.250581 39.667692 
L 52.254308 40.913231 
L 52.694154 42.044864 
L 52.734628 42.158769 
L 53.62037 43.404308 
L 53.939692 43.712788 
L 54.978676 44.649846 
L 55.185231 44.811627 
L 56.430769 45.665292 
L 56.871704 45.895385 
L 57.676308 46.355317 
L 58.921846 46.804218 
L 60.167385 46.916991 
L 61.412923 46.522678 
L 62.094012 45.895385 
L 62.658462 45.380772 
L 63.164368 44.649846 
L 63.904 43.655955 
L 64.063235 43.404308 
L 64.978509 42.158769 
L 65.149538 41.951598 
L 66.051804 40.913231 
L 66.395077 40.550296 
L 67.360405 39.667692 
L 67.640615 39.415947 
L 68.886154 38.526153 
L 69.107601 38.422154 
L 70.131692 37.933205 
L 71.377231 37.719537 
L 72.622769 37.923322 
L 73.697191 38.422154 
L 73.868308 38.500493 
L 75.113846 39.320007 
L 75.573505 39.667692 
L 76.359385 40.22774 
L 77.278476 40.913231 
L 77.604923 41.15869 
L 78.850462 42.140434 
L 78.872743 42.158769 
L 80.096 43.304138 
L 80.199192 43.404308 
L 81.284569 44.649846 
L 81.341538 44.729181 
L 82.28298 45.895385 
L 82.587077 46.303531 
L 83.42402 47.140923 
L 83.832615 47.547931 
L 85.078154 48.306101 
L 85.318604 48.386462 
z
" clip-path="url(#pffa2fe50d2)" style="fill: none; stroke: #000000; stroke-width: 0.5"/>
   </g>
   <g id="PathCollection_7">
    <path d="M 84.646582 44.649846 
L 85.078154 44.965879 
L 86.323692 45.501109 
L 87.569231 45.640498 
L 88.814769 45.308245 
L 89.654858 44.649846 
L 90.060308 44.060172 
L 90.344342 43.404308 
L 90.48107 42.158769 
L 90.263285 40.913231 
L 90.060308 40.454565 
L 89.692042 39.667692 
L 88.850261 38.422154 
L 88.814769 38.378814 
L 87.878516 37.176615 
L 87.569231 36.772088 
L 86.979949 35.931077 
L 86.323692 34.865688 
L 86.218325 34.685538 
L 85.552251 33.44 
L 85.078154 32.445915 
L 84.953285 32.194462 
L 84.408377 30.948923 
L 83.978868 29.703385 
L 83.832615 28.992734 
L 83.721828 28.457846 
L 83.691296 27.212308 
L 83.832615 26.357094 
L 83.897619 25.966769 
L 84.324748 24.721231 
L 84.948181 23.475692 
L 85.078154 23.267423 
L 85.735552 22.230154 
L 86.323692 21.448006 
L 86.692234 20.984615 
L 87.569231 19.998451 
L 87.826426 19.739077 
L 88.814769 18.768999 
L 89.133155 18.493538 
L 90.060308 17.606591 
L 90.466212 17.248 
L 91.305846 16.263624 
L 91.530152 16.002462 
L 92.128526 14.756923 
L 92.232201 13.511385 
L 91.737757 12.265846 
L 91.305846 11.8203 
L 90.060308 11.100535 
L 89.486274 11.020308 
L 88.814769 10.952557 
L 88.437605 11.020308 
L 87.569231 11.181976 
L 86.323692 11.694766 
L 85.287133 12.265846 
L 85.078154 12.382121 
L 83.832615 13.157626 
L 83.2468 13.511385 
L 82.587077 13.911182 
L 81.341538 14.567331 
L 80.89511 14.756923 
L 80.096 15.109256 
L 78.850462 15.471192 
L 77.604923 15.609519 
L 76.359385 15.476258 
L 75.113846 15.025486 
L 74.662429 14.756923 
L 73.868308 14.184228 
L 73.16345 13.511385 
L 72.622769 12.835775 
L 72.208929 12.265846 
L 71.539734 11.020308 
L 71.377231 10.641244 
L 70.983783 9.774769 
L 70.489504 8.529231 
L 70.131692 7.646371 
L 69.944956 7.283692 
L 69.17961 6.038154 
L 68.886154 5.66591 
L 67.76492 4.792615 
L 67.640615 4.718167 
L 66.395077 4.366735 
L 65.149538 4.368989 
L 63.904 4.778957 
L 63.884952 4.792615 
L 63.114885 6.038154 
L 63.048752 7.283692 
L 63.241412 8.529231 
L 63.499536 9.774769 
L 63.724788 11.020308 
L 63.846964 12.265846 
L 63.791976 13.511385 
L 63.468518 14.756923 
L 62.778067 16.002462 
L 62.658462 16.147996 
L 61.511476 17.248 
L 61.412923 17.324194 
L 60.167385 17.9661 
L 58.921846 18.265278 
L 57.676308 18.319407 
L 56.430769 18.223353 
L 55.185231 18.063365 
L 53.939692 17.936114 
L 52.694154 17.993907 
L 51.53729 18.493538 
L 51.448615 18.611707 
L 51.037738 19.739077 
L 51.239301 20.984615 
L 51.448615 21.32974 
L 52.120043 22.230154 
L 52.694154 22.684155 
L 53.796226 23.475692 
L 53.939692 23.555818 
L 55.185231 24.319737 
L 55.681208 24.721231 
L 56.430769 25.337521 
L 56.97825 25.966769 
L 57.676308 26.965322 
L 57.811608 27.212308 
L 58.325682 28.457846 
L 58.617524 29.703385 
L 58.707674 30.948923 
L 58.602909 32.194462 
L 58.298252 33.44 
L 57.777441 34.685538 
L 57.676308 34.87665 
L 57.079722 35.931077 
L 56.430769 36.9696 
L 56.291596 37.176615 
L 55.632868 38.422154 
L 55.283133 39.667692 
L 55.398492 40.913231 
L 56.08113 42.158769 
L 56.430769 42.520488 
L 57.658337 43.404308 
L 57.676308 43.414669 
L 58.921846 43.769943 
L 60.167385 43.673104 
L 60.703039 43.404308 
L 61.412923 43.019976 
L 62.327517 42.158769 
L 62.658462 41.845134 
L 63.459875 40.913231 
L 63.904 40.429975 
L 64.577596 39.667692 
L 65.149538 39.063344 
L 65.78208 38.422154 
L 66.395077 37.819477 
L 67.117873 37.176615 
L 67.640615 36.721985 
L 68.768811 35.931077 
L 68.886154 35.854705 
L 70.131692 35.326229 
L 71.377231 35.149102 
L 72.622769 35.32423 
L 73.868308 35.84041 
L 74.009403 35.931077 
L 75.113846 36.694168 
L 75.683607 37.176615 
L 76.359385 37.73273 
L 77.161743 38.422154 
L 77.604923 38.775978 
L 78.742764 39.667692 
L 78.850462 39.749874 
L 80.096 40.692835 
L 80.384289 40.913231 
L 81.341538 41.714671 
L 81.857098 42.158769 
L 82.587077 42.86597 
L 83.176634 43.404308 
L 83.832615 44.035603 
L 84.646582 44.649846 
z
" clip-path="url(#pffa2fe50d2)" style="fill: none; stroke: #000000; stroke-width: 0.5"/>
   </g>
   <g id="PathCollection_8">
    <path d="M 82.91669 39.667692 
L 83.832615 40.171222 
L 85.078154 40.763375 
L 85.848857 39.667692 
L 85.408952 38.422154 
L 85.078154 37.677598 
L 84.867476 37.176615 
L 84.302265 35.931077 
L 83.832615 34.830815 
L 83.766798 34.685538 
L 83.140274 33.44 
L 82.587077 32.244706 
L 82.561274 32.194462 
L 81.990983 30.948923 
L 81.614879 29.703385 
L 81.435784 28.457846 
L 81.44883 27.212308 
L 81.638349 25.966769 
L 81.98828 24.721231 
L 82.499321 23.475692 
L 82.587077 23.291957 
L 83.128058 22.230154 
L 83.832615 21.093714 
L 83.903181 20.984615 
L 84.715133 19.739077 
L 85.078154 19.193348 
L 85.592842 18.493538 
L 86.323692 17.452934 
L 86.485969 17.248 
L 87.00778 16.002462 
L 86.323692 15.306474 
L 85.078154 15.532956 
L 83.832615 15.966115 
L 83.75347 16.002462 
L 82.587077 16.58026 
L 81.341538 17.066696 
L 80.798349 17.248 
L 80.096 17.497986 
L 78.850462 17.780436 
L 77.604923 17.863844 
L 76.359385 17.737649 
L 75.113846 17.396625 
L 74.763755 17.248 
L 73.868308 16.836301 
L 72.622769 16.094599 
L 72.471273 16.002462 
L 71.377231 15.164949 
L 70.774302 14.756923 
L 70.131692 14.135297 
L 69.197859 13.511385 
L 68.886154 13.151873 
L 67.640615 12.844578 
L 67.243823 13.511385 
L 66.395077 14.568873 
L 66.322913 14.756923 
L 65.526027 16.002462 
L 65.149538 16.423798 
L 64.524244 17.248 
L 63.904 17.893753 
L 63.285662 18.493538 
L 62.658462 19.055936 
L 61.704281 19.739077 
L 61.412923 19.978553 
L 60.167385 20.766916 
L 59.700261 20.984615 
L 58.921846 21.792878 
L 58.544361 22.230154 
L 58.634154 23.475692 
L 58.921846 24.175022 
L 59.076455 24.721231 
L 59.543443 25.966769 
L 59.957677 27.212308 
L 60.167385 28.000314 
L 60.289183 28.457846 
L 60.534795 29.703385 
L 60.668812 30.948923 
L 60.68263 32.194462 
L 60.566305 33.44 
L 60.295843 34.685538 
L 60.167385 35.112653 
L 59.940827 35.931077 
L 59.556022 37.176615 
L 59.276768 38.422154 
L 60.167385 39.554951 
L 61.412923 38.969267 
L 62.077068 38.422154 
L 62.658462 38.001656 
L 63.574538 37.176615 
L 63.904 36.92482 
L 65.026658 35.931077 
L 65.149538 35.83745 
L 66.395077 34.803877 
L 66.548865 34.685538 
L 67.640615 33.956844 
L 68.705403 33.44 
L 68.886154 33.366253 
L 70.131692 33.051657 
L 71.377231 32.969935 
L 72.622769 33.100254 
L 73.863988 33.44 
L 73.868308 33.441348 
L 75.113846 34.039635 
L 76.064277 34.685538 
L 76.359385 34.915074 
L 77.506303 35.931077 
L 77.604923 36.019534 
L 78.850462 37.102566 
L 78.947255 37.176615 
L 80.096 37.995781 
L 80.769363 38.422154 
L 81.341538 38.783675 
L 82.587077 39.51151 
L 82.91669 39.667692 
z
" clip-path="url(#pffa2fe50d2)" style="fill: none; stroke: #000000; stroke-width: 0.5"/>
   </g>
   <g id="PathCollection_9">
    <path d="M 63.740534 30.948923 
L 63.904 31.185633 
L 65.149538 31.672075 
L 66.395077 31.536767 
L 67.640615 31.291079 
L 68.886154 31.097314 
L 70.131692 31.000997 
L 71.377231 31.00385 
L 72.622769 31.091369 
L 73.868308 31.242766 
L 75.113846 31.429732 
L 76.359385 31.59498 
L 77.604923 31.530497 
L 78.255437 30.948923 
L 78.727736 29.703385 
L 78.850462 29.122095 
L 78.942264 28.457846 
L 79.119403 27.212308 
L 79.3017 25.966769 
L 79.476834 24.721231 
L 79.596218 23.475692 
L 79.506535 22.230154 
L 78.850462 21.23491 
L 78.565047 20.984615 
L 77.604923 20.583885 
L 76.359385 20.135202 
L 75.350421 19.739077 
L 75.113846 19.660744 
L 73.868308 19.140011 
L 72.622769 18.561427 
L 72.465005 18.493538 
L 71.377231 17.98661 
L 70.131692 17.553329 
L 68.886154 17.423028 
L 67.640615 17.736523 
L 66.458793 18.493538 
L 66.395077 18.533052 
L 65.149538 19.60936 
L 65.013868 19.739077 
L 63.904 20.860419 
L 63.775435 20.984615 
L 62.768323 22.230154 
L 62.658462 22.448956 
L 62.143884 23.475692 
L 61.951254 24.721231 
L 62.040734 25.966769 
L 62.284372 27.212308 
L 62.602142 28.457846 
L 62.658462 28.664094 
L 63.07241 29.703385 
L 63.740534 30.948923 
z
" clip-path="url(#pffa2fe50d2)" style="fill: none; stroke: #000000; stroke-width: 0.5"/>
   </g>
   <g id="PathCollection_10">
    <path d="M 67.421909 28.457846 
L 67.640615 28.524978 
L 68.886154 28.738521 
L 70.131692 28.855777 
L 71.377231 28.925379 
L 72.622769 28.939623 
L 73.868308 28.838277 
L 75.113846 28.466614 
L 75.128144 28.457846 
L 76.255711 27.212308 
L 76.359385 26.9219 
L 76.608489 25.966769 
L 76.602217 24.721231 
L 76.359385 23.990989 
L 76.144306 23.475692 
L 75.113846 22.397241 
L 74.921354 22.230154 
L 73.868308 21.598244 
L 72.727373 20.984615 
L 72.622769 20.9361 
L 71.377231 20.459866 
L 70.131692 20.176289 
L 68.886154 20.216968 
L 67.640615 20.681502 
L 67.203319 20.984615 
L 66.395077 21.689683 
L 65.916704 22.230154 
L 65.183998 23.475692 
L 65.149538 23.613918 
L 64.897395 24.721231 
L 64.993469 25.966769 
L 65.149538 26.393954 
L 65.575827 27.212308 
L 66.395077 27.981099 
L 67.421909 28.457846 
z
" clip-path="url(#pffa2fe50d2)" style="fill: none; stroke: #000000; stroke-width: 0.5"/>
   </g>
   <g id="PathCollection_11"/>
   <g id="text_1">
    <!-- ContourPy -->
    <g style="fill: #efefef" transform="translate(7.080187 69.843125) scale(0.28 -0.28)">
     <defs>
      <path id="Catamaran-Bold-43" d="M 3475 4160 
Q 3219 4301 2886 4371 
Q 2554 4442 2323 4442 
Q 1696 4442 1219 4150 
Q 742 3859 483 3340 
Q 224 2822 224 2157 
Q 224 1517 461 1008 
Q 698 499 1165 204 
Q 1632 -90 2291 -90 
Q 2573 -90 2921 -13 
Q 3270 64 3514 192 
L 3200 806 
Q 2720 608 2246 608 
Q 1888 608 1625 816 
Q 1363 1024 1225 1379 
Q 1088 1734 1088 2163 
Q 1088 2643 1245 3001 
Q 1402 3360 1677 3552 
Q 1952 3744 2298 3744 
Q 2515 3744 2662 3715 
Q 2810 3686 3059 3610 
L 3219 3565 
L 3475 4160 
z
" transform="scale(0.015625)"/>
      <path id="Catamaran-Bold-6f" d="M 3475 1562 
Q 3475 1069 3270 697 
Q 3066 326 2691 124 
Q 2317 -77 1818 -77 
Q 1318 -77 944 121 
Q 570 320 365 688 
Q 160 1056 160 1549 
Q 160 2042 365 2413 
Q 570 2784 944 2985 
Q 1318 3187 1818 3187 
Q 2317 3187 2691 2988 
Q 3066 2790 3270 2422 
Q 3475 2054 3475 1562 
z
M 1818 634 
Q 2163 634 2390 896 
Q 2618 1158 2618 1562 
Q 2618 1965 2394 2221 
Q 2170 2477 1818 2477 
Q 1472 2477 1245 2214 
Q 1018 1952 1018 1549 
Q 1018 1146 1242 890 
Q 1466 634 1818 634 
z
" transform="scale(0.015625)"/>
      <path id="Catamaran-Bold-6e" d="M 1184 2150 
Q 1414 2317 1606 2416 
Q 1798 2515 2016 2515 
Q 2227 2515 2345 2355 
Q 2464 2195 2464 1907 
L 2464 0 
L 3296 0 
L 3296 1946 
Q 3296 2541 3059 2873 
Q 2822 3206 2234 3206 
Q 1978 3206 1651 3091 
Q 1325 2976 1037 2771 
L 896 3104 
L 352 3104 
L 352 0 
L 1184 0 
L 1184 2150 
z
" transform="scale(0.015625)"/>
      <path id="Catamaran-Bold-74" d="M 1306 3098 
L 1306 3981 
L 480 3834 
L 480 3098 
L 64 3098 
L 64 2458 
L 480 2458 
L 480 992 
Q 480 461 806 166 
Q 1133 -128 1715 -128 
Q 1869 -128 2057 -70 
Q 2246 -13 2342 64 
L 2099 666 
Q 1926 582 1760 582 
Q 1542 582 1424 736 
Q 1306 890 1306 1139 
L 1306 2458 
L 2125 2458 
L 1869 3098 
L 1306 3098 
z
" transform="scale(0.015625)"/>
      <path id="Catamaran-Bold-75" d="M 2438 954 
Q 2208 787 2016 688 
Q 1824 589 1606 589 
Q 1395 589 1276 749 
Q 1158 909 1158 1197 
L 1158 3104 
L 326 3104 
L 326 1158 
Q 326 563 563 230 
Q 800 -102 1389 -102 
Q 1645 -102 1971 13 
Q 2298 128 2586 333 
L 2726 0 
L 3270 0 
L 3270 3104 
L 2438 3104 
L 2438 954 
z
" transform="scale(0.015625)"/>
      <path id="Catamaran-Bold-72" d="M 1184 1894 
Q 1453 2131 1763 2284 
Q 2074 2438 2285 2438 
L 2118 3104 
Q 1888 3104 1587 2944 
Q 1286 2784 1062 2586 
L 787 3104 
L 352 3104 
L 352 0 
L 1184 0 
L 1184 1894 
z
" transform="scale(0.015625)"/>
      <path id="Catamaran-Bold-50" d="M 1370 1517 
L 1850 1517 
Q 2330 1517 2733 1673 
Q 3136 1830 3382 2156 
Q 3629 2483 3629 2957 
Q 3629 3667 3152 4009 
Q 2675 4352 1907 4352 
L 544 4352 
L 544 0 
L 1370 0 
L 1370 1517 
z
M 1882 3661 
Q 2310 3661 2531 3485 
Q 2752 3309 2752 2906 
Q 2726 2554 2502 2378 
Q 2278 2202 1894 2202 
L 1370 2202 
L 1370 3661 
L 1882 3661 
z
" transform="scale(0.015625)"/>
      <path id="Catamaran-Bold-79" d="M 986 -147 
Q 915 -339 707 -467 
Q 499 -595 173 -736 
L 467 -1421 
Q 896 -1318 1261 -1046 
Q 1626 -774 1766 -410 
L 3155 3104 
L 2278 3104 
L 1600 1222 
L 883 3219 
L 64 2976 
L 1133 218 
L 986 -147 
z
" transform="scale(0.015625)"/>
     </defs>
     <use xlink:href="#Catamaran-Bold-43"/>
     <use xlink:href="#Catamaran-Bold-6f" x="56.399994"/>
     <use xlink:href="#Catamaran-Bold-6e" x="113.199982"/>
     <use xlink:href="#Catamaran-Bold-74" x="169.799973"/>
     <use xlink:href="#Catamaran-Bold-6f" x="207.899963"/>
     <use xlink:href="#Catamaran-Bold-75" x="264.699951"/>
     <use xlink:href="#Catamaran-Bold-72" x="321.299942"/>
     <use xlink:href="#Catamaran-Bold-50" x="357.999939"/>
     <use xlink:href="#Catamaran-Bold-79" x="417.199936"/>
    </g>
   </g>
  </g>
 </g>
 <defs>
  <clipPath id="pffa2fe50d2">
   <rect x="47.712" y="0" width="48.576" height="79.2"/>
  </clipPath>
 </defs>
</svg>
