<?xml version="1.0" encoding="utf-8" standalone="no"?>
<!DOCTYPE svg PUBLIC "-//W3C//DTD SVG 1.1//EN"
  "http://www.w3.org/Graphics/SVG/1.1/DTD/svg11.dtd">
<svg xmlns:xlink="http://www.w3.org/1999/xlink" width="183.6pt" height="54pt" viewBox="0 0 183.6 54" xmlns="http://www.w3.org/2000/svg" version="1.1">
 <metadata>
  <rdf:RDF xmlns:dc="http://purl.org/dc/elements/1.1/" xmlns:cc="http://creativecommons.org/ns#" xmlns:rdf="http://www.w3.org/1999/02/22-rdf-syntax-ns#">
   <cc:Work>
    <dc:type rdf:resource="http://purl.org/dc/dcmitype/StillImage"/>
    <dc:date>2022-11-26T14:28:00.006328</dc:date>
    <dc:format>image/svg+xml</dc:format>
    <dc:creator>
     <cc:Agent>
      <dc:title>Matplotlib v3.6.2, https://matplotlib.org/</dc:title>
     </cc:Agent>
    </dc:creator>
   </cc:Work>
  </rdf:RDF>
 </metadata>
 <defs>
  <style type="text/css">*{stroke-linejoin: round; stroke-linecap: butt}</style>
 </defs>
 <g id="figure_1">
  <g id="patch_1">
   <path d="M 0 54 
L 183.6 54 
L 183.6 0 
L 0 0 
L 0 54 
z
" style="fill: none"/>
  </g>
  <g id="axes_1">
   <g id="PathCollection_1">
    <path d="M 40.0813 50.566154 
L 41.109231 50.940046 
L 42.383077 51.122782 
L 43.656923 51.083678 
L 44.930769 50.802248 
L 45.463335 50.566154 
L 46.204615 50.181071 
L 47.139974 49.292308 
L 47.478462 48.769391 
L 47.8526 48.018462 
L 48.190914 46.744615 
L 48.308426 45.470769 
L 48.253294 44.196923 
L 48.002265 42.923077 
L 47.478462 41.695871 
L 47.460135 41.649231 
L 46.649407 40.375385 
L 46.204615 39.894507 
L 45.523516 39.101538 
L 44.930769 38.50279 
L 44.343928 37.827692 
L 43.656923 37.004467 
L 43.331408 36.553846 
L 42.535902 35.28 
L 42.383077 34.985271 
L 41.909915 34.006154 
L 41.402875 32.732308 
L 41.109231 31.769773 
L 41.013165 31.458462 
L 40.782665 30.184615 
L 40.754416 28.910769 
L 40.956983 27.636923 
L 41.109231 27.191838 
L 41.398595 26.363077 
L 42.064817 25.089231 
L 42.383077 24.622615 
L 42.984053 23.815385 
L 43.656923 23.064638 
L 44.206798 22.541538 
L 44.930769 21.910213 
L 45.817858 21.267692 
L 46.204615 20.975011 
L 47.478462 20.134416 
L 47.71719 19.993846 
L 48.752308 19.188419 
L 49.323938 18.72 
L 50.026154 17.770584 
L 50.247874 17.446154 
L 50.701691 16.172308 
L 50.820248 14.898462 
L 50.653735 13.624615 
L 50.120425 12.350769 
L 50.026154 12.222637 
L 49.009589 11.076923 
L 48.752308 10.886572 
L 47.478462 10.151544 
L 46.510499 9.803077 
L 46.204615 9.702275 
L 44.930769 9.494237 
L 43.656923 9.553934 
L 42.802853 9.803077 
L 42.383077 9.911434 
L 41.109231 10.525697 
L 40.307199 11.076923 
L 39.835385 11.370345 
L 38.561538 12.283846 
L 38.469699 12.350769 
L 37.287692 13.136485 
L 36.452288 13.624615 
L 36.013846 13.870397 
L 34.74 14.415621 
L 33.466154 14.741871 
L 32.192308 14.783598 
L 30.918462 14.450086 
L 29.644615 13.638588 
L 29.629887 13.624615 
L 28.554097 12.350769 
L 28.370769 12.070725 
L 27.827329 11.076923 
L 27.272839 9.803077 
L 27.096923 9.32815 
L 26.797171 8.529231 
L 26.34581 7.255385 
L 25.8523 5.981538 
L 25.823077 5.913143 
L 25.109703 4.707692 
L 24.549231 4.068789 
L 23.54957 3.433846 
L 23.275385 3.306503 
L 22.001538 2.967232 
L 20.727692 2.814377 
L 19.453846 2.776841 
L 18.18 2.837562 
L 16.906154 3.019566 
L 15.632308 3.413979 
L 15.594081 3.433846 
L 14.446537 4.707692 
L 14.358462 5.362497 
L 14.305444 5.981538 
L 14.358462 6.278705 
L 14.522247 7.255385 
L 14.891221 8.529231 
L 15.290812 9.803077 
L 15.632308 10.999448 
L 15.654825 11.076923 
L 15.924135 12.350769 
L 16.010911 13.624615 
L 15.830599 14.898462 
L 15.632308 15.374527 
L 15.18508 16.172308 
L 14.358462 16.954793 
L 13.31578 17.446154 
L 13.084615 17.530469 
L 11.810769 17.680049 
L 10.536923 17.594833 
L 9.710921 17.446154 
L 9.263077 17.369633 
L 7.989231 17.098063 
L 6.715385 16.839096 
L 5.441538 16.672062 
L 4.167692 16.734844 
L 2.893846 17.347599 
L 2.801761 17.446154 
L 2.154472 18.72 
L 1.908448 19.993846 
L 1.869605 21.267692 
L 2.00037 22.541538 
L 2.349864 23.815385 
L 2.893846 24.787315 
L 3.121242 25.089231 
L 4.167692 25.937175 
L 4.887642 26.363077 
L 5.441538 26.61807 
L 6.715385 27.187145 
L 7.593984 27.636923 
L 7.989231 27.844937 
L 9.263077 28.769604 
L 9.404746 28.910769 
L 10.3568 30.184615 
L 10.536923 30.59923 
L 10.83321 31.458462 
L 10.967489 32.732308 
L 10.812336 34.006154 
L 10.536923 34.827458 
L 10.359738 35.28 
L 9.610991 36.553846 
L 9.263077 37.049456 
L 8.617564 37.827692 
L 7.989231 38.638002 
L 7.568656 39.101538 
L 6.746706 40.375385 
L 6.715385 40.471116 
L 6.261731 41.649231 
L 6.265543 42.923077 
L 6.715385 44.080429 
L 6.756779 44.196923 
L 7.662652 45.470769 
L 7.989231 45.786261 
L 9.051827 46.744615 
L 9.263077 46.910074 
L 10.536923 47.78314 
L 10.987879 48.018462 
L 11.810769 48.488847 
L 13.084615 48.94795 
L 14.358462 49.063286 
L 15.632308 48.660011 
L 16.328876 48.018462 
L 16.906154 47.492153 
L 17.423558 46.744615 
L 18.18 45.728135 
L 18.342854 45.470769 
L 19.278929 44.196923 
L 19.453846 43.985043 
L 20.376618 42.923077 
L 20.727692 42.551894 
L 21.714959 41.649231 
L 22.001538 41.391764 
L 23.275385 40.481747 
L 23.501864 40.375385 
L 24.549231 39.875323 
L 25.823077 39.656799 
L 27.096923 39.865216 
L 28.195763 40.375385 
L 28.370769 40.455505 
L 29.644615 41.293644 
L 30.114721 41.649231 
L 30.918462 42.222007 
L 31.858441 42.923077 
L 32.192308 43.174115 
L 33.466154 44.178171 
L 33.488942 44.196923 
L 34.74 45.368323 
L 34.845538 45.470769 
L 35.955582 46.744615 
L 36.013846 46.825753 
L 36.976684 48.018462 
L 37.287692 48.435884 
L 38.143657 49.292308 
L 38.561538 49.708566 
L 39.835385 50.483967 
z
M 39.835385 47.06783 
L 39.394004 46.744615 
L 38.561538 46.116412 
L 37.890649 45.470769 
L 37.287692 44.920197 
L 36.541123 44.196923 
L 36.013846 43.742731 
L 35.034841 42.923077 
L 34.74 42.697672 
L 33.466154 41.73328 
L 33.356009 41.649231 
L 32.192308 40.737251 
L 31.739055 40.375385 
L 30.918462 39.670292 
L 30.227325 39.101538 
L 29.644615 38.608126 
L 28.515072 37.827692 
L 28.370769 37.734965 
L 27.096923 37.207054 
L 25.823077 37.027945 
L 24.549231 37.209098 
L 23.275385 37.749584 
L 23.155375 37.827692 
L 22.001538 38.636576 
L 21.466916 39.101538 
L 20.727692 39.759011 
L 20.100764 40.375385 
L 19.453846 41.031148 
L 18.868905 41.649231 
L 18.18 42.428838 
L 17.725781 42.923077 
L 16.906154 43.87616 
L 16.567688 44.196923 
L 15.632308 45.077703 
L 14.90629 45.470769 
L 14.358462 45.745674 
L 13.084615 45.844715 
L 11.810769 45.481366 
L 11.79239 45.470769 
L 10.536923 44.566863 
L 10.179337 44.196923 
L 9.481185 42.923077 
L 9.363204 41.649231 
L 9.720888 40.375385 
L 10.394587 39.101538 
L 10.536923 38.889818 
L 11.200625 37.827692 
L 11.810769 36.749301 
L 11.914201 36.553846 
L 12.446849 35.28 
L 12.75843 34.006154 
L 12.865576 32.732308 
L 12.773377 31.458462 
L 12.474902 30.184615 
L 11.949144 28.910769 
L 11.810769 28.65817 
L 11.096847 27.636923 
L 10.536923 26.993374 
L 9.770326 26.363077 
L 9.263077 25.952459 
L 7.989231 25.171177 
L 7.842504 25.089231 
L 6.715385 24.279704 
L 6.128225 23.815385 
L 5.441538 22.894507 
L 5.227467 22.541538 
L 5.021323 21.267692 
L 5.441538 20.1147 
L 5.532228 19.993846 
L 6.715385 19.48286 
L 7.989231 19.423753 
L 9.263077 19.553896 
L 10.536923 19.717521 
L 11.810769 19.815757 
L 13.084615 19.760398 
L 14.358462 19.454421 
L 15.632308 18.797925 
L 15.7331 18.72 
L 16.906154 17.594996 
L 17.028477 17.446154 
L 17.73462 16.172308 
L 18.06543 14.898462 
L 18.121668 13.624615 
L 17.996715 12.350769 
L 17.766344 11.076923 
L 17.502353 9.803077 
L 17.305314 8.529231 
L 17.37295 7.255385 
L 18.160519 5.981538 
L 18.18 5.96757 
L 19.453846 5.548284 
L 20.727692 5.545979 
L 22.001538 5.905398 
L 22.128668 5.981538 
L 23.275385 6.874681 
L 23.57551 7.255385 
L 24.35825 8.529231 
L 24.549231 8.900152 
L 24.915175 9.803077 
L 25.420687 11.076923 
L 25.823077 11.963091 
L 25.989274 12.350769 
L 26.673677 13.624615 
L 27.096923 14.207497 
L 27.649892 14.898462 
L 28.370769 15.586597 
L 29.182939 16.172308 
L 29.644615 16.446975 
L 30.918462 16.907991 
L 32.192308 17.044281 
L 33.466154 16.90281 
L 34.74 16.532648 
L 35.557272 16.172308 
L 36.013846 15.978406 
L 37.287692 15.307345 
L 37.962409 14.898462 
L 38.561538 14.536663 
L 39.835385 13.743533 
L 40.049113 13.624615 
L 41.109231 13.040557 
L 42.383077 12.516111 
L 43.271187 12.350769 
L 43.656923 12.281479 
L 44.343689 12.350769 
L 44.930769 12.43282 
L 46.204615 13.168943 
L 46.646342 13.624615 
L 47.152024 14.898462 
L 47.045992 16.172308 
L 46.434019 17.446154 
L 46.204615 17.713252 
L 45.345899 18.72 
L 44.930769 19.086741 
L 43.982545 19.993846 
L 43.656923 20.275567 
L 42.646118 21.267692 
L 42.383077 21.532961 
L 41.486148 22.541538 
L 41.109231 23.015461 
L 40.507723 23.815385 
L 39.835385 24.876228 
L 39.702458 25.089231 
L 39.064856 26.363077 
L 38.628019 27.636923 
L 38.561538 28.036118 
L 38.417007 28.910769 
L 38.448233 30.184615 
L 38.561538 30.73166 
L 38.711115 31.458462 
L 39.150386 32.732308 
L 39.707678 34.006154 
L 39.835385 34.263322 
L 40.320257 35.28 
L 41.001469 36.553846 
L 41.109231 36.73809 
L 41.780403 37.827692 
L 42.383077 38.687817 
L 42.699391 39.101538 
L 43.656923 40.33106 
L 43.693221 40.375385 
L 44.554134 41.649231 
L 44.930769 42.453987 
L 45.138359 42.923077 
L 45.361094 44.196923 
L 45.221258 45.470769 
L 44.930769 46.141539 
L 44.516104 46.744615 
L 43.656923 47.417978 
L 42.383077 47.757782 
L 41.109231 47.615225 
z
" clip-path="url(#pa8ab97a80e)" style="fill: #1a9641"/>
   </g>
   <g id="PathCollection_2">
    <path d="M 39.394004 46.744615 
L 39.835385 47.06783 
L 41.109231 47.615225 
L 42.383077 47.757782 
L 43.656923 47.417978 
L 44.516104 46.744615 
L 44.930769 46.141539 
L 45.221258 45.470769 
L 45.361094 44.196923 
L 45.138359 42.923077 
L 44.930769 42.453987 
L 44.554134 41.649231 
L 43.693221 40.375385 
L 43.656923 40.33106 
L 42.699391 39.101538 
L 42.383077 38.687817 
L 41.780403 37.827692 
L 41.109231 36.73809 
L 41.001469 36.553846 
L 40.320257 35.28 
L 39.835385 34.263322 
L 39.707678 34.006154 
L 39.150386 32.732308 
L 38.711115 31.458462 
L 38.561538 30.73166 
L 38.448233 30.184615 
L 38.417007 28.910769 
L 38.561538 28.036118 
L 38.628019 27.636923 
L 39.064856 26.363077 
L 39.702458 25.089231 
L 39.835385 24.876228 
L 40.507723 23.815385 
L 41.109231 23.015461 
L 41.486148 22.541538 
L 42.383077 21.532961 
L 42.646118 21.267692 
L 43.656923 20.275567 
L 43.982545 19.993846 
L 44.930769 19.086741 
L 45.345899 18.72 
L 46.204615 17.713252 
L 46.434019 17.446154 
L 47.045992 16.172308 
L 47.152024 14.898462 
L 46.646342 13.624615 
L 46.204615 13.168943 
L 44.930769 12.43282 
L 44.343689 12.350769 
L 43.656923 12.281479 
L 43.271187 12.350769 
L 42.383077 12.516111 
L 41.109231 13.040557 
L 40.049113 13.624615 
L 39.835385 13.743533 
L 38.561538 14.536663 
L 37.962409 14.898462 
L 37.287692 15.307345 
L 36.013846 15.978406 
L 35.557272 16.172308 
L 34.74 16.532648 
L 33.466154 16.90281 
L 32.192308 17.044281 
L 30.918462 16.907991 
L 29.644615 16.446975 
L 29.182939 16.172308 
L 28.370769 15.586597 
L 27.649892 14.898462 
L 27.096923 14.207497 
L 26.673677 13.624615 
L 25.989274 12.350769 
L 25.823077 11.963091 
L 25.420687 11.076923 
L 24.915175 9.803077 
L 24.549231 8.900152 
L 24.35825 8.529231 
L 23.57551 7.255385 
L 23.275385 6.874681 
L 22.128668 5.981538 
L 22.001538 5.905398 
L 20.727692 5.545979 
L 19.453846 5.548284 
L 18.18 5.96757 
L 18.160519 5.981538 
L 17.37295 7.255385 
L 17.305314 8.529231 
L 17.502353 9.803077 
L 17.766344 11.076923 
L 17.996715 12.350769 
L 18.121668 13.624615 
L 18.06543 14.898462 
L 17.73462 16.172308 
L 17.028477 17.446154 
L 16.906154 17.594996 
L 15.7331 18.72 
L 15.632308 18.797925 
L 14.358462 19.454421 
L 13.084615 19.760398 
L 11.810769 19.815757 
L 10.536923 19.717521 
L 9.263077 19.553896 
L 7.989231 19.423753 
L 6.715385 19.48286 
L 5.532228 19.993846 
L 5.441538 20.1147 
L 5.021323 21.267692 
L 5.227467 22.541538 
L 5.441538 22.894507 
L 6.128225 23.815385 
L 6.715385 24.279704 
L 7.842504 25.089231 
L 7.989231 25.171177 
L 9.263077 25.952459 
L 9.770326 26.363077 
L 10.536923 26.993374 
L 11.096847 27.636923 
L 11.810769 28.65817 
L 11.949144 28.910769 
L 12.474902 30.184615 
L 12.773377 31.458462 
L 12.865576 32.732308 
L 12.75843 34.006154 
L 12.446849 35.28 
L 11.914201 36.553846 
L 11.810769 36.749301 
L 11.200625 37.827692 
L 10.536923 38.889818 
L 10.394587 39.101538 
L 9.720888 40.375385 
L 9.363204 41.649231 
L 9.481185 42.923077 
L 10.179337 44.196923 
L 10.536923 44.566863 
L 11.79239 45.470769 
L 11.810769 45.481366 
L 13.084615 45.844715 
L 14.358462 45.745674 
L 14.90629 45.470769 
L 15.632308 45.077703 
L 16.567688 44.196923 
L 16.906154 43.87616 
L 17.725781 42.923077 
L 18.18 42.428838 
L 18.868905 41.649231 
L 19.453846 41.031148 
L 20.100764 40.375385 
L 20.727692 39.759011 
L 21.466916 39.101538 
L 22.001538 38.636576 
L 23.155375 37.827692 
L 23.275385 37.749584 
L 24.549231 37.209098 
L 25.823077 37.027945 
L 27.096923 37.207054 
L 28.370769 37.734965 
L 28.515072 37.827692 
L 29.644615 38.608126 
L 30.227325 39.101538 
L 30.918462 39.670292 
L 31.739055 40.375385 
L 32.192308 40.737251 
L 33.356009 41.649231 
L 33.466154 41.73328 
L 34.74 42.697672 
L 35.034841 42.923077 
L 36.013846 43.742731 
L 36.541123 44.196923 
L 37.287692 44.920197 
L 37.890649 45.470769 
L 38.561538 46.116412 
z
M 38.561538 42.164204 
L 37.624796 41.649231 
L 37.287692 41.489499 
L 36.013846 40.745122 
L 35.428667 40.375385 
L 34.74 39.939322 
L 33.565147 39.101538 
L 33.466154 39.025806 
L 32.192308 37.91816 
L 32.091446 37.827692 
L 30.918462 36.788599 
L 30.616647 36.553846 
L 29.644615 35.893263 
L 28.370769 35.281378 
L 28.366352 35.28 
L 27.096923 34.932533 
L 25.823077 34.799252 
L 24.549231 34.882831 
L 23.275385 35.204577 
L 23.090525 35.28 
L 22.001538 35.808591 
L 20.884976 36.553846 
L 20.727692 36.674874 
L 19.453846 37.731938 
L 19.328173 37.827692 
L 18.18 38.84402 
L 17.84305 39.101538 
L 16.906154 39.94533 
L 16.311547 40.375385 
L 15.632308 40.934932 
L 14.358462 41.533927 
L 13.447604 40.375385 
L 13.733204 39.101538 
L 14.126754 37.827692 
L 14.358462 36.990668 
L 14.489839 36.553846 
L 14.766449 35.28 
L 14.885417 34.006154 
L 14.871285 32.732308 
L 14.734222 31.458462 
L 14.483028 30.184615 
L 14.358462 29.716685 
L 14.143988 28.910769 
L 13.720339 27.636923 
L 13.242738 26.363077 
L 13.084615 25.804454 
L 12.790385 25.089231 
L 12.698551 23.815385 
L 13.084615 23.368171 
L 13.880721 22.541538 
L 14.358462 22.318891 
L 15.632308 21.512611 
L 15.930287 21.267692 
L 16.906154 20.569025 
L 17.547609 19.993846 
L 18.18 19.38043 
L 18.81434 18.72 
L 19.453846 17.877066 
L 19.838891 17.446154 
L 20.653888 16.172308 
L 20.727692 15.979983 
L 21.595728 14.898462 
L 22.001538 14.2165 
L 23.275385 14.530779 
L 23.594174 14.898462 
L 24.549231 15.536554 
L 25.206446 16.172308 
L 25.823077 16.589607 
L 26.941984 17.446154 
L 27.096923 17.540385 
L 28.370769 18.298944 
L 29.286568 18.72 
L 29.644615 18.872003 
L 30.918462 19.220777 
L 32.192308 19.34984 
L 33.466154 19.264537 
L 34.74 18.975667 
L 35.458311 18.72 
L 36.013846 18.534576 
L 37.287692 18.037084 
L 38.480594 17.446154 
L 38.561538 17.408981 
L 39.835385 16.965978 
L 41.109231 16.734348 
L 41.808866 17.446154 
L 41.275195 18.72 
L 41.109231 18.929592 
L 40.36177 19.993846 
L 39.835385 20.70956 
L 39.464113 21.267692 
L 38.633708 22.541538 
L 38.561538 22.653117 
L 37.840968 23.815385 
L 37.287692 24.901319 
L 37.197942 25.089231 
L 36.675286 26.363077 
L 36.317402 27.636923 
L 36.123576 28.910769 
L 36.110234 30.184615 
L 36.293399 31.458462 
L 36.67805 32.732308 
L 37.261303 34.006154 
L 37.287692 34.057541 
L 37.853462 35.28 
L 38.494225 36.553846 
L 38.561538 36.702424 
L 39.041862 37.827692 
L 39.619919 39.101538 
L 39.835385 39.613907 
L 40.1737 40.375385 
L 40.623603 41.649231 
L 39.835385 42.769815 
z
" clip-path="url(#pa8ab97a80e)" style="fill: #a6d96a"/>
   </g>
   <g id="PathCollection_3">
    <path d="M 37.624796 41.649231 
L 38.561538 42.164204 
L 39.835385 42.769815 
L 40.623603 41.649231 
L 40.1737 40.375385 
L 39.835385 39.613907 
L 39.619919 39.101538 
L 39.041862 37.827692 
L 38.561538 36.702424 
L 38.494225 36.553846 
L 37.853462 35.28 
L 37.287692 34.057541 
L 37.261303 34.006154 
L 36.67805 32.732308 
L 36.293399 31.458462 
L 36.110234 30.184615 
L 36.123576 28.910769 
L 36.317402 27.636923 
L 36.675286 26.363077 
L 37.197942 25.089231 
L 37.287692 24.901319 
L 37.840968 23.815385 
L 38.561538 22.653117 
L 38.633708 22.541538 
L 39.464113 21.267692 
L 39.835385 20.70956 
L 40.36177 19.993846 
L 41.109231 18.929592 
L 41.275195 18.72 
L 41.808866 17.446154 
L 41.109231 16.734348 
L 39.835385 16.965978 
L 38.561538 17.408981 
L 38.480594 17.446154 
L 37.287692 18.037084 
L 36.013846 18.534576 
L 35.458311 18.72 
L 34.74 18.975667 
L 33.466154 19.264537 
L 32.192308 19.34984 
L 30.918462 19.220777 
L 29.644615 18.872003 
L 29.286568 18.72 
L 28.370769 18.298944 
L 27.096923 17.540385 
L 26.941984 17.446154 
L 25.823077 16.589607 
L 25.206446 16.172308 
L 24.549231 15.536554 
L 23.594174 14.898462 
L 23.275385 14.530779 
L 22.001538 14.2165 
L 21.595728 14.898462 
L 20.727692 15.979983 
L 20.653888 16.172308 
L 19.838891 17.446154 
L 19.453846 17.877066 
L 18.81434 18.72 
L 18.18 19.38043 
L 17.547609 19.993846 
L 16.906154 20.569025 
L 15.930287 21.267692 
L 15.632308 21.512611 
L 14.358462 22.318891 
L 13.880721 22.541538 
L 13.084615 23.368171 
L 12.698551 23.815385 
L 12.790385 25.089231 
L 13.084615 25.804454 
L 13.242738 26.363077 
L 13.720339 27.636923 
L 14.143988 28.910769 
L 14.358462 29.716685 
L 14.483028 30.184615 
L 14.734222 31.458462 
L 14.871285 32.732308 
L 14.885417 34.006154 
L 14.766449 35.28 
L 14.489839 36.553846 
L 14.358462 36.990668 
L 14.126754 37.827692 
L 13.733204 39.101538 
L 13.447604 40.375385 
L 14.358462 41.533927 
L 15.632308 40.934932 
L 16.311547 40.375385 
L 16.906154 39.94533 
L 17.84305 39.101538 
L 18.18 38.84402 
L 19.328173 37.827692 
L 19.453846 37.731938 
L 20.727692 36.674874 
L 20.884976 36.553846 
L 22.001538 35.808591 
L 23.090525 35.28 
L 23.275385 35.204577 
L 24.549231 34.882831 
L 25.823077 34.799252 
L 27.096923 34.932533 
L 28.366352 35.28 
L 28.370769 35.281378 
L 29.644615 35.893263 
L 30.616647 36.553846 
L 30.918462 36.788599 
L 32.091446 37.827692 
L 32.192308 37.91816 
L 33.466154 39.025806 
L 33.565147 39.101538 
L 34.74 39.939322 
L 35.428667 40.375385 
L 36.013846 40.745122 
L 37.287692 41.489499 
z
M 18.18 32.974398 
L 18.012819 32.732308 
L 17.32951 31.458462 
L 16.906154 30.39555 
L 16.848555 30.184615 
L 16.523562 28.910769 
L 16.274387 27.636923 
L 16.182874 26.363077 
L 16.379881 25.089231 
L 16.906154 24.039159 
L 17.018512 23.815385 
L 18.048513 22.541538 
L 18.18 22.414519 
L 19.315092 21.267692 
L 19.453846 21.135027 
L 20.727692 20.034257 
L 20.792856 19.993846 
L 22.001538 19.219626 
L 23.275385 18.899006 
L 24.549231 19.032268 
L 25.823077 19.475397 
L 26.935574 19.993846 
L 27.096923 20.063277 
L 28.370769 20.655011 
L 29.644615 21.187579 
L 29.886566 21.267692 
L 30.918462 21.67282 
L 32.192308 22.131701 
L 33.174253 22.541538 
L 33.466154 22.797521 
L 34.137138 23.815385 
L 34.228859 25.089231 
L 34.106762 26.363077 
L 33.927648 27.636923 
L 33.741208 28.910769 
L 33.560043 30.184615 
L 33.466154 30.86396 
L 33.340639 31.458462 
L 32.857606 32.732308 
L 32.192308 33.327099 
L 30.918462 33.393047 
L 29.644615 33.224044 
L 28.370769 33.032829 
L 27.096923 32.877991 
L 25.823077 32.788483 
L 24.549231 32.785565 
L 23.275385 32.884071 
L 22.001538 33.08224 
L 20.727692 33.333512 
L 19.453846 33.471895 
z
" clip-path="url(#pa8ab97a80e)" style="fill: #ffffbf"/>
   </g>
   <g id="PathCollection_4">
    <path d="M 18.012819 32.732308 
L 18.18 32.974398 
L 19.453846 33.471895 
L 20.727692 33.333512 
L 22.001538 33.08224 
L 23.275385 32.884071 
L 24.549231 32.785565 
L 25.823077 32.788483 
L 27.096923 32.877991 
L 28.370769 33.032829 
L 29.644615 33.224044 
L 30.918462 33.393047 
L 32.192308 33.327099 
L 32.857606 32.732308 
L 33.340639 31.458462 
L 33.466154 30.86396 
L 33.560043 30.184615 
L 33.741208 28.910769 
L 33.927648 27.636923 
L 34.106762 26.363077 
L 34.228859 25.089231 
L 34.137138 23.815385 
L 33.466154 22.797521 
L 33.174253 22.541538 
L 32.192308 22.131701 
L 30.918462 21.67282 
L 29.886566 21.267692 
L 29.644615 21.187579 
L 28.370769 20.655011 
L 27.096923 20.063277 
L 26.935574 19.993846 
L 25.823077 19.475397 
L 24.549231 19.032268 
L 23.275385 18.899006 
L 22.001538 19.219626 
L 20.792856 19.993846 
L 20.727692 20.034257 
L 19.453846 21.135027 
L 19.315092 21.267692 
L 18.18 22.414519 
L 18.048513 22.541538 
L 17.018512 23.815385 
L 16.906154 24.039159 
L 16.379881 25.089231 
L 16.182874 26.363077 
L 16.274387 27.636923 
L 16.523562 28.910769 
L 16.848555 30.184615 
L 16.906154 30.39555 
L 17.32951 31.458462 
z
M 22.001538 30.253273 
L 21.777862 30.184615 
L 20.727692 29.697034 
L 19.889823 28.910769 
L 19.453846 28.073817 
L 19.29423 27.636923 
L 19.195972 26.363077 
L 19.453846 25.230598 
L 19.489089 25.089231 
L 20.238448 23.815385 
L 20.727692 23.26263 
L 21.554304 22.541538 
L 22.001538 22.231536 
L 23.275385 21.756445 
L 24.549231 21.714841 
L 25.823077 22.004863 
L 27.096923 22.491921 
L 27.203904 22.541538 
L 28.370769 23.169113 
L 29.447748 23.815385 
L 29.644615 23.986269 
L 30.698494 25.089231 
L 30.918462 25.616239 
L 31.166813 26.363077 
L 31.173227 27.636923 
L 30.918462 28.613761 
L 30.812432 28.910769 
L 29.659238 30.184615 
L 29.644615 30.193582 
L 28.370769 30.573692 
L 27.096923 30.677342 
L 25.823077 30.662774 
L 24.549231 30.59159 
L 23.275385 30.47167 
z
" clip-path="url(#pa8ab97a80e)" style="fill: #fdae61"/>
   </g>
   <g id="PathCollection_5">
    <path d="M 21.777862 30.184615 
L 22.001538 30.253273 
L 23.275385 30.47167 
L 24.549231 30.59159 
L 25.823077 30.662774 
L 27.096923 30.677342 
L 28.370769 30.573692 
L 29.644615 30.193582 
L 29.659238 30.184615 
L 30.812432 28.910769 
L 30.918462 28.613761 
L 31.173227 27.636923 
L 31.166813 26.363077 
L 30.918462 25.616239 
L 30.698494 25.089231 
L 29.644615 23.986269 
L 29.447748 23.815385 
L 28.370769 23.169113 
L 27.203904 22.541538 
L 27.096923 22.491921 
L 25.823077 22.004863 
L 24.549231 21.714841 
L 23.275385 21.756445 
L 22.001538 22.231536 
L 21.554304 22.541538 
L 20.727692 23.26263 
L 20.238448 23.815385 
L 19.489089 25.089231 
L 19.453846 25.230598 
L 19.195972 26.363077 
L 19.29423 27.636923 
L 19.453846 28.073817 
L 19.889823 28.910769 
L 20.727692 29.697034 
z
" clip-path="url(#pa8ab97a80e)" style="fill: #d7191c"/>
   </g>
   <g id="PathCollection_6">
    <path d="M 40.0813 50.566154 
L 41.109231 50.940046 
L 42.383077 51.122782 
L 43.656923 51.083678 
L 44.930769 50.802248 
L 45.463335 50.566154 
L 46.204615 50.181071 
L 47.139974 49.292308 
L 47.478462 48.769391 
L 47.8526 48.018462 
L 48.190914 46.744615 
L 48.308426 45.470769 
L 48.253294 44.196923 
L 48.002265 42.923077 
L 47.478462 41.695871 
L 47.460135 41.649231 
L 46.649407 40.375385 
L 46.204615 39.894507 
L 45.523516 39.101538 
L 44.930769 38.50279 
L 44.343928 37.827692 
L 43.656923 37.004467 
L 43.331408 36.553846 
L 42.535902 35.28 
L 42.383077 34.985271 
L 41.909915 34.006154 
L 41.402875 32.732308 
L 41.109231 31.769773 
L 41.013165 31.458462 
L 40.782665 30.184615 
L 40.754416 28.910769 
L 40.956983 27.636923 
L 41.109231 27.191838 
L 41.398595 26.363077 
L 42.064817 25.089231 
L 42.383077 24.622615 
L 42.984053 23.815385 
L 43.656923 23.064638 
L 44.206798 22.541538 
L 44.930769 21.910213 
L 45.817858 21.267692 
L 46.204615 20.975011 
L 47.478462 20.134416 
L 47.71719 19.993846 
L 48.752308 19.188419 
L 49.323938 18.72 
L 50.026154 17.770584 
L 50.247874 17.446154 
L 50.701691 16.172308 
L 50.820248 14.898462 
L 50.653735 13.624615 
L 50.120425 12.350769 
L 50.026154 12.222637 
L 49.009589 11.076923 
L 48.752308 10.886572 
L 47.478462 10.151544 
L 46.510499 9.803077 
L 46.204615 9.702275 
L 44.930769 9.494237 
L 43.656923 9.553934 
L 42.802853 9.803077 
L 42.383077 9.911434 
L 41.109231 10.525697 
L 40.307199 11.076923 
L 39.835385 11.370345 
L 38.561538 12.283846 
L 38.469699 12.350769 
L 37.287692 13.136485 
L 36.452288 13.624615 
L 36.013846 13.870397 
L 34.74 14.415621 
L 33.466154 14.741871 
L 32.192308 14.783598 
L 30.918462 14.450086 
L 29.644615 13.638588 
L 29.629887 13.624615 
L 28.554097 12.350769 
L 28.370769 12.070725 
L 27.827329 11.076923 
L 27.272839 9.803077 
L 27.096923 9.32815 
L 26.797171 8.529231 
L 26.34581 7.255385 
L 25.8523 5.981538 
L 25.823077 5.913143 
L 25.109703 4.707692 
L 24.549231 4.068789 
L 23.54957 3.433846 
L 23.275385 3.306503 
L 22.001538 2.967232 
L 20.727692 2.814377 
L 19.453846 2.776841 
L 18.18 2.837562 
L 16.906154 3.019566 
L 15.632308 3.413979 
L 15.594081 3.433846 
L 14.446537 4.707692 
L 14.358462 5.362497 
L 14.305444 5.981538 
L 14.358462 6.278705 
L 14.522247 7.255385 
L 14.891221 8.529231 
L 15.290812 9.803077 
L 15.632308 10.999448 
L 15.654825 11.076923 
L 15.924135 12.350769 
L 16.010911 13.624615 
L 15.830599 14.898462 
L 15.632308 15.374527 
L 15.18508 16.172308 
L 14.358462 16.954793 
L 13.31578 17.446154 
L 13.084615 17.530469 
L 11.810769 17.680049 
L 10.536923 17.594833 
L 9.710921 17.446154 
L 9.263077 17.369633 
L 7.989231 17.098063 
L 6.715385 16.839096 
L 5.441538 16.672062 
L 4.167692 16.734844 
L 2.893846 17.347599 
L 2.801761 17.446154 
L 2.154472 18.72 
L 1.908448 19.993846 
L 1.869605 21.267692 
L 2.00037 22.541538 
L 2.349864 23.815385 
L 2.893846 24.787315 
L 3.121242 25.089231 
L 4.167692 25.937175 
L 4.887642 26.363077 
L 5.441538 26.61807 
L 6.715385 27.187145 
L 7.593984 27.636923 
L 7.989231 27.844937 
L 9.263077 28.769604 
L 9.404746 28.910769 
L 10.3568 30.184615 
L 10.536923 30.59923 
L 10.83321 31.458462 
L 10.967489 32.732308 
L 10.812336 34.006154 
L 10.536923 34.827458 
L 10.359738 35.28 
L 9.610991 36.553846 
L 9.263077 37.049456 
L 8.617564 37.827692 
L 7.989231 38.638002 
L 7.568656 39.101538 
L 6.746706 40.375385 
L 6.715385 40.471116 
L 6.261731 41.649231 
L 6.265543 42.923077 
L 6.715385 44.080429 
L 6.756779 44.196923 
L 7.662652 45.470769 
L 7.989231 45.786261 
L 9.051827 46.744615 
L 9.263077 46.910074 
L 10.536923 47.78314 
L 10.987879 48.018462 
L 11.810769 48.488847 
L 13.084615 48.94795 
L 14.358462 49.063286 
L 15.632308 48.660011 
L 16.328876 48.018462 
L 16.906154 47.492153 
L 17.423558 46.744615 
L 18.18 45.728135 
L 18.342854 45.470769 
L 19.278929 44.196923 
L 19.453846 43.985043 
L 20.376618 42.923077 
L 20.727692 42.551894 
L 21.714959 41.649231 
L 22.001538 41.391764 
L 23.275385 40.481747 
L 23.501864 40.375385 
L 24.549231 39.875323 
L 25.823077 39.656799 
L 27.096923 39.865216 
L 28.195763 40.375385 
L 28.370769 40.455505 
L 29.644615 41.293644 
L 30.114721 41.649231 
L 30.918462 42.222007 
L 31.858441 42.923077 
L 32.192308 43.174115 
L 33.466154 44.178171 
L 33.488942 44.196923 
L 34.74 45.368323 
L 34.845538 45.470769 
L 35.955582 46.744615 
L 36.013846 46.825753 
L 36.976684 48.018462 
L 37.287692 48.435884 
L 38.143657 49.292308 
L 38.561538 49.708566 
L 39.835385 50.483967 
L 40.0813 50.566154 
z
" clip-path="url(#pa8ab97a80e)" style="fill: none; stroke: #000000; stroke-width: 0.5"/>
   </g>
   <g id="PathCollection_7">
    <path d="M 39.394004 46.744615 
L 39.835385 47.06783 
L 41.109231 47.615225 
L 42.383077 47.757782 
L 43.656923 47.417978 
L 44.516104 46.744615 
L 44.930769 46.141539 
L 45.221258 45.470769 
L 45.361094 44.196923 
L 45.138359 42.923077 
L 44.930769 42.453987 
L 44.554134 41.649231 
L 43.693221 40.375385 
L 43.656923 40.33106 
L 42.699391 39.101538 
L 42.383077 38.687817 
L 41.780403 37.827692 
L 41.109231 36.73809 
L 41.001469 36.553846 
L 40.320257 35.28 
L 39.835385 34.263322 
L 39.707678 34.006154 
L 39.150386 32.732308 
L 38.711115 31.458462 
L 38.561538 30.73166 
L 38.448233 30.184615 
L 38.417007 28.910769 
L 38.561538 28.036118 
L 38.628019 27.636923 
L 39.064856 26.363077 
L 39.702458 25.089231 
L 39.835385 24.876228 
L 40.507723 23.815385 
L 41.109231 23.015461 
L 41.486148 22.541538 
L 42.383077 21.532961 
L 42.646118 21.267692 
L 43.656923 20.275567 
L 43.982545 19.993846 
L 44.930769 19.086741 
L 45.345899 18.72 
L 46.204615 17.713252 
L 46.434019 17.446154 
L 47.045992 16.172308 
L 47.152024 14.898462 
L 46.646342 13.624615 
L 46.204615 13.168943 
L 44.930769 12.43282 
L 44.343689 12.350769 
L 43.656923 12.281479 
L 43.271187 12.350769 
L 42.383077 12.516111 
L 41.109231 13.040557 
L 40.049113 13.624615 
L 39.835385 13.743533 
L 38.561538 14.536663 
L 37.962409 14.898462 
L 37.287692 15.307345 
L 36.013846 15.978406 
L 35.557272 16.172308 
L 34.74 16.532648 
L 33.466154 16.90281 
L 32.192308 17.044281 
L 30.918462 16.907991 
L 29.644615 16.446975 
L 29.182939 16.172308 
L 28.370769 15.586597 
L 27.649892 14.898462 
L 27.096923 14.207497 
L 26.673677 13.624615 
L 25.989274 12.350769 
L 25.823077 11.963091 
L 25.420687 11.076923 
L 24.915175 9.803077 
L 24.549231 8.900152 
L 24.35825 8.529231 
L 23.57551 7.255385 
L 23.275385 6.874681 
L 22.128668 5.981538 
L 22.001538 5.905398 
L 20.727692 5.545979 
L 19.453846 5.548284 
L 18.18 5.96757 
L 18.160519 5.981538 
L 17.37295 7.255385 
L 17.305314 8.529231 
L 17.502353 9.803077 
L 17.766344 11.076923 
L 17.996715 12.350769 
L 18.121668 13.624615 
L 18.06543 14.898462 
L 17.73462 16.172308 
L 17.028477 17.446154 
L 16.906154 17.594996 
L 15.7331 18.72 
L 15.632308 18.797925 
L 14.358462 19.454421 
L 13.084615 19.760398 
L 11.810769 19.815757 
L 10.536923 19.717521 
L 9.263077 19.553896 
L 7.989231 19.423753 
L 6.715385 19.48286 
L 5.532228 19.993846 
L 5.441538 20.1147 
L 5.021323 21.267692 
L 5.227467 22.541538 
L 5.441538 22.894507 
L 6.128225 23.815385 
L 6.715385 24.279704 
L 7.842504 25.089231 
L 7.989231 25.171177 
L 9.263077 25.952459 
L 9.770326 26.363077 
L 10.536923 26.993374 
L 11.096847 27.636923 
L 11.810769 28.65817 
L 11.949144 28.910769 
L 12.474902 30.184615 
L 12.773377 31.458462 
L 12.865576 32.732308 
L 12.75843 34.006154 
L 12.446849 35.28 
L 11.914201 36.553846 
L 11.810769 36.749301 
L 11.200625 37.827692 
L 10.536923 38.889818 
L 10.394587 39.101538 
L 9.720888 40.375385 
L 9.363204 41.649231 
L 9.481185 42.923077 
L 10.179337 44.196923 
L 10.536923 44.566863 
L 11.79239 45.470769 
L 11.810769 45.481366 
L 13.084615 45.844715 
L 14.358462 45.745674 
L 14.90629 45.470769 
L 15.632308 45.077703 
L 16.567688 44.196923 
L 16.906154 43.87616 
L 17.725781 42.923077 
L 18.18 42.428838 
L 18.868905 41.649231 
L 19.453846 41.031148 
L 20.100764 40.375385 
L 20.727692 39.759011 
L 21.466916 39.101538 
L 22.001538 38.636576 
L 23.155375 37.827692 
L 23.275385 37.749584 
L 24.549231 37.209098 
L 25.823077 37.027945 
L 27.096923 37.207054 
L 28.370769 37.734965 
L 28.515072 37.827692 
L 29.644615 38.608126 
L 30.227325 39.101538 
L 30.918462 39.670292 
L 31.739055 40.375385 
L 32.192308 40.737251 
L 33.356009 41.649231 
L 33.466154 41.73328 
L 34.74 42.697672 
L 35.034841 42.923077 
L 36.013846 43.742731 
L 36.541123 44.196923 
L 37.287692 44.920197 
L 37.890649 45.470769 
L 38.561538 46.116412 
L 39.394004 46.744615 
z
" clip-path="url(#pa8ab97a80e)" style="fill: none; stroke: #000000; stroke-width: 0.5"/>
   </g>
   <g id="PathCollection_8">
    <path d="M 37.624796 41.649231 
L 38.561538 42.164204 
L 39.835385 42.769815 
L 40.623603 41.649231 
L 40.1737 40.375385 
L 39.835385 39.613907 
L 39.619919 39.101538 
L 39.041862 37.827692 
L 38.561538 36.702424 
L 38.494225 36.553846 
L 37.853462 35.28 
L 37.287692 34.057541 
L 37.261303 34.006154 
L 36.67805 32.732308 
L 36.293399 31.458462 
L 36.110234 30.184615 
L 36.123576 28.910769 
L 36.317402 27.636923 
L 36.675286 26.363077 
L 37.197942 25.089231 
L 37.287692 24.901319 
L 37.840968 23.815385 
L 38.561538 22.653117 
L 38.633708 22.541538 
L 39.464113 21.267692 
L 39.835385 20.70956 
L 40.36177 19.993846 
L 41.109231 18.929592 
L 41.275195 18.72 
L 41.808866 17.446154 
L 41.109231 16.734348 
L 39.835385 16.965978 
L 38.561538 17.408981 
L 38.480594 17.446154 
L 37.287692 18.037084 
L 36.013846 18.534576 
L 35.458311 18.72 
L 34.74 18.975667 
L 33.466154 19.264537 
L 32.192308 19.34984 
L 30.918462 19.220777 
L 29.644615 18.872003 
L 29.286568 18.72 
L 28.370769 18.298944 
L 27.096923 17.540385 
L 26.941984 17.446154 
L 25.823077 16.589607 
L 25.206446 16.172308 
L 24.549231 15.536554 
L 23.594174 14.898462 
L 23.275385 14.530779 
L 22.001538 14.2165 
L 21.595728 14.898462 
L 20.727692 15.979983 
L 20.653888 16.172308 
L 19.838891 17.446154 
L 19.453846 17.877066 
L 18.81434 18.72 
L 18.18 19.38043 
L 17.547609 19.993846 
L 16.906154 20.569025 
L 15.930287 21.267692 
L 15.632308 21.512611 
L 14.358462 22.318891 
L 13.880721 22.541538 
L 13.084615 23.368171 
L 12.698551 23.815385 
L 12.790385 25.089231 
L 13.084615 25.804454 
L 13.242738 26.363077 
L 13.720339 27.636923 
L 14.143988 28.910769 
L 14.358462 29.716685 
L 14.483028 30.184615 
L 14.734222 31.458462 
L 14.871285 32.732308 
L 14.885417 34.006154 
L 14.766449 35.28 
L 14.489839 36.553846 
L 14.358462 36.990668 
L 14.126754 37.827692 
L 13.733204 39.101538 
L 13.447604 40.375385 
L 14.358462 41.533927 
L 15.632308 40.934932 
L 16.311547 40.375385 
L 16.906154 39.94533 
L 17.84305 39.101538 
L 18.18 38.84402 
L 19.328173 37.827692 
L 19.453846 37.731938 
L 20.727692 36.674874 
L 20.884976 36.553846 
L 22.001538 35.808591 
L 23.090525 35.28 
L 23.275385 35.204577 
L 24.549231 34.882831 
L 25.823077 34.799252 
L 27.096923 34.932533 
L 28.366352 35.28 
L 28.370769 35.281378 
L 29.644615 35.893263 
L 30.616647 36.553846 
L 30.918462 36.788599 
L 32.091446 37.827692 
L 32.192308 37.91816 
L 33.466154 39.025806 
L 33.565147 39.101538 
L 34.74 39.939322 
L 35.428667 40.375385 
L 36.013846 40.745122 
L 37.287692 41.489499 
L 37.624796 41.649231 
z
" clip-path="url(#pa8ab97a80e)" style="fill: none; stroke: #000000; stroke-width: 0.5"/>
   </g>
   <g id="PathCollection_9">
    <path d="M 18.012819 32.732308 
L 18.18 32.974398 
L 19.453846 33.471895 
L 20.727692 33.333512 
L 22.001538 33.08224 
L 23.275385 32.884071 
L 24.549231 32.785565 
L 25.823077 32.788483 
L 27.096923 32.877991 
L 28.370769 33.032829 
L 29.644615 33.224044 
L 30.918462 33.393047 
L 32.192308 33.327099 
L 32.857606 32.732308 
L 33.340639 31.458462 
L 33.466154 30.86396 
L 33.560043 30.184615 
L 33.741208 28.910769 
L 33.927648 27.636923 
L 34.106762 26.363077 
L 34.228859 25.089231 
L 34.137138 23.815385 
L 33.466154 22.797521 
L 33.174253 22.541538 
L 32.192308 22.131701 
L 30.918462 21.67282 
L 29.886566 21.267692 
L 29.644615 21.187579 
L 28.370769 20.655011 
L 27.096923 20.063277 
L 26.935574 19.993846 
L 25.823077 19.475397 
L 24.549231 19.032268 
L 23.275385 18.899006 
L 22.001538 19.219626 
L 20.792856 19.993846 
L 20.727692 20.034257 
L 19.453846 21.135027 
L 19.315092 21.267692 
L 18.18 22.414519 
L 18.048513 22.541538 
L 17.018512 23.815385 
L 16.906154 24.039159 
L 16.379881 25.089231 
L 16.182874 26.363077 
L 16.274387 27.636923 
L 16.523562 28.910769 
L 16.848555 30.184615 
L 16.906154 30.39555 
L 17.32951 31.458462 
L 18.012819 32.732308 
z
" clip-path="url(#pa8ab97a80e)" style="fill: none; stroke: #000000; stroke-width: 0.5"/>
   </g>
   <g id="PathCollection_10">
    <path d="M 21.777862 30.184615 
L 22.001538 30.253273 
L 23.275385 30.47167 
L 24.549231 30.59159 
L 25.823077 30.662774 
L 27.096923 30.677342 
L 28.370769 30.573692 
L 29.644615 30.193582 
L 29.659238 30.184615 
L 30.812432 28.910769 
L 30.918462 28.613761 
L 31.173227 27.636923 
L 31.166813 26.363077 
L 30.918462 25.616239 
L 30.698494 25.089231 
L 29.644615 23.986269 
L 29.447748 23.815385 
L 28.370769 23.169113 
L 27.203904 22.541538 
L 27.096923 22.491921 
L 25.823077 22.004863 
L 24.549231 21.714841 
L 23.275385 21.756445 
L 22.001538 22.231536 
L 21.554304 22.541538 
L 20.727692 23.26263 
L 20.238448 23.815385 
L 19.489089 25.089231 
L 19.453846 25.230598 
L 19.195972 26.363077 
L 19.29423 27.636923 
L 19.453846 28.073817 
L 19.889823 28.910769 
L 20.727692 29.697034 
L 21.777862 30.184615 
z
" clip-path="url(#pa8ab97a80e)" style="fill: none; stroke: #000000; stroke-width: 0.5"/>
   </g>
   <g id="PathCollection_11"/>
   <g id="text_1">
    <!-- ContourPy -->
    <g transform="translate(51.3 37.921563) scale(0.28 -0.28)">
     <defs>
      <path id="Catamaran-Bold-43" d="M 3475 4160 
Q 3219 4301 2886 4371 
Q 2554 4442 2323 4442 
Q 1696 4442 1219 4150 
Q 742 3859 483 3340 
Q 224 2822 224 2157 
Q 224 1517 461 1008 
Q 698 499 1165 204 
Q 1632 -90 2291 -90 
Q 2573 -90 2921 -13 
Q 3270 64 3514 192 
L 3200 806 
Q 2720 608 2246 608 
Q 1888 608 1625 816 
Q 1363 1024 1225 1379 
Q 1088 1734 1088 2163 
Q 1088 2643 1245 3001 
Q 1402 3360 1677 3552 
Q 1952 3744 2298 3744 
Q 2515 3744 2662 3715 
Q 2810 3686 3059 3610 
L 3219 3565 
L 3475 4160 
z
" transform="scale(0.015625)"/>
      <path id="Catamaran-Bold-6f" d="M 3475 1562 
Q 3475 1069 3270 697 
Q 3066 326 2691 124 
Q 2317 -77 1818 -77 
Q 1318 -77 944 121 
Q 570 320 365 688 
Q 160 1056 160 1549 
Q 160 2042 365 2413 
Q 570 2784 944 2985 
Q 1318 3187 1818 3187 
Q 2317 3187 2691 2988 
Q 3066 2790 3270 2422 
Q 3475 2054 3475 1562 
z
M 1818 634 
Q 2163 634 2390 896 
Q 2618 1158 2618 1562 
Q 2618 1965 2394 2221 
Q 2170 2477 1818 2477 
Q 1472 2477 1245 2214 
Q 1018 1952 1018 1549 
Q 1018 1146 1242 890 
Q 1466 634 1818 634 
z
" transform="scale(0.015625)"/>
      <path id="Catamaran-Bold-6e" d="M 1184 2150 
Q 1414 2317 1606 2416 
Q 1798 2515 2016 2515 
Q 2227 2515 2345 2355 
Q 2464 2195 2464 1907 
L 2464 0 
L 3296 0 
L 3296 1946 
Q 3296 2541 3059 2873 
Q 2822 3206 2234 3206 
Q 1978 3206 1651 3091 
Q 1325 2976 1037 2771 
L 896 3104 
L 352 3104 
L 352 0 
L 1184 0 
L 1184 2150 
z
" transform="scale(0.015625)"/>
      <path id="Catamaran-Bold-74" d="M 1306 3098 
L 1306 3981 
L 480 3834 
L 480 3098 
L 64 3098 
L 64 2458 
L 480 2458 
L 480 992 
Q 480 461 806 166 
Q 1133 -128 1715 -128 
Q 1869 -128 2057 -70 
Q 2246 -13 2342 64 
L 2099 666 
Q 1926 582 1760 582 
Q 1542 582 1424 736 
Q 1306 890 1306 1139 
L 1306 2458 
L 2125 2458 
L 1869 3098 
L 1306 3098 
z
" transform="scale(0.015625)"/>
      <path id="Catamaran-Bold-75" d="M 2438 954 
Q 2208 787 2016 688 
Q 1824 589 1606 589 
Q 1395 589 1276 749 
Q 1158 909 1158 1197 
L 1158 3104 
L 326 3104 
L 326 1158 
Q 326 563 563 230 
Q 800 -102 1389 -102 
Q 1645 -102 1971 13 
Q 2298 128 2586 333 
L 2726 0 
L 3270 0 
L 3270 3104 
L 2438 3104 
L 2438 954 
z
" transform="scale(0.015625)"/>
      <path id="Catamaran-Bold-72" d="M 1184 1894 
Q 1453 2131 1763 2284 
Q 2074 2438 2285 2438 
L 2118 3104 
Q 1888 3104 1587 2944 
Q 1286 2784 1062 2586 
L 787 3104 
L 352 3104 
L 352 0 
L 1184 0 
L 1184 1894 
z
" transform="scale(0.015625)"/>
      <path id="Catamaran-Bold-50" d="M 1370 1517 
L 1850 1517 
Q 2330 1517 2733 1673 
Q 3136 1830 3382 2156 
Q 3629 2483 3629 2957 
Q 3629 3667 3152 4009 
Q 2675 4352 1907 4352 
L 544 4352 
L 544 0 
L 1370 0 
L 1370 1517 
z
M 1882 3661 
Q 2310 3661 2531 3485 
Q 2752 3309 2752 2906 
Q 2726 2554 2502 2378 
Q 2278 2202 1894 2202 
L 1370 2202 
L 1370 3661 
L 1882 3661 
z
" transform="scale(0.015625)"/>
      <path id="Catamaran-Bold-79" d="M 986 -147 
Q 915 -339 707 -467 
Q 499 -595 173 -736 
L 467 -1421 
Q 896 -1318 1261 -1046 
Q 1626 -774 1766 -410 
L 3155 3104 
L 2278 3104 
L 1600 1222 
L 883 3219 
L 64 2976 
L 1133 218 
L 986 -147 
z
" transform="scale(0.015625)"/>
     </defs>
     <use xlink:href="#Catamaran-Bold-43"/>
     <use xlink:href="#Catamaran-Bold-6f" x="56.399994"/>
     <use xlink:href="#Catamaran-Bold-6e" x="113.199982"/>
     <use xlink:href="#Catamaran-Bold-74" x="169.799973"/>
     <use xlink:href="#Catamaran-Bold-6f" x="207.899963"/>
     <use xlink:href="#Catamaran-Bold-75" x="264.699951"/>
     <use xlink:href="#Catamaran-Bold-72" x="321.299942"/>
     <use xlink:href="#Catamaran-Bold-50" x="357.999939"/>
     <use xlink:href="#Catamaran-Bold-79" x="417.199936"/>
    </g>
   </g>
  </g>
 </g>
 <defs>
  <clipPath id="pa8ab97a80e">
   <rect x="0" y="2.16" width="183.6" height="49.68"/>
  </clipPath>
 </defs>
</svg>
