<?xml version="1.0" encoding="utf-8" standalone="no"?>
<!DOCTYPE svg PUBLIC "-//W3C//DTD SVG 1.1//EN"
  "http://www.w3.org/Graphics/SVG/1.1/DTD/svg11.dtd">
<!-- Created with matplotlib (https://matplotlib.org/) -->
<svg height="79.2pt" version="1.1" viewBox="0 0 144 79.2" width="144pt" xmlns="http://www.w3.org/2000/svg" xmlns:xlink="http://www.w3.org/1999/xlink">
 <metadata>
  <rdf:RDF xmlns:cc="http://creativecommons.org/ns#" xmlns:dc="http://purl.org/dc/elements/1.1/" xmlns:rdf="http://www.w3.org/1999/02/22-rdf-syntax-ns#">
   <cc:Work>
    <dc:type rdf:resource="http://purl.org/dc/dcmitype/StillImage"/>
    <dc:date>2021-06-22T17:26:56.814404</dc:date>
    <dc:format>image/svg+xml</dc:format>
    <dc:creator>
     <cc:Agent>
      <dc:title>Matplotlib v3.3.4, https://matplotlib.org/</dc:title>
     </cc:Agent>
    </dc:creator>
   </cc:Work>
  </rdf:RDF>
 </metadata>
 <defs>
  <style type="text/css">*{stroke-linecap:butt;stroke-linejoin:round;}</style>
 </defs>
 <g id="figure_1">
  <g id="patch_1">
   <path d="M 0 79.2 
L 144 79.2 
L 144 0 
L 0 0 
z
" style="fill:none;"/>
  </g>
  <g id="axes_1">
   <g id="PathCollection_1">
    <path clip-path="url(#pcf7bb5934c)" d="M 86.323692 48.752045 
L 87.569231 48.93072 
L 88.814769 48.892485 
L 90.060308 48.617309 
L 90.581038 48.386462 
L 91.305846 48.009936 
L 92.220419 47.140923 
L 92.551385 46.629627 
L 92.917209 45.895385 
L 93.248004 44.649846 
L 93.362906 43.404308 
L 93.308998 42.158769 
L 93.063548 40.913231 
L 92.551385 39.713297 
L 92.533465 39.667692 
L 91.740753 38.422154 
L 91.305846 37.951962 
L 90.639882 37.176615 
L 90.060308 36.591173 
L 89.486507 35.931077 
L 88.814769 35.126145 
L 88.496488 34.685538 
L 87.718659 33.44 
L 87.569231 33.15182 
L 87.106584 32.194462 
L 86.610812 30.948923 
L 86.323692 30.007778 
L 86.229762 29.703385 
L 86.004384 28.457846 
L 85.976762 27.212308 
L 86.174828 25.966769 
L 86.323692 25.531575 
L 86.606626 24.721231 
L 87.258043 23.475692 
L 87.569231 23.019446 
L 88.156852 22.230154 
L 88.814769 21.496091 
L 89.352424 20.984615 
L 90.060308 20.36732 
L 90.927683 19.739077 
L 91.305846 19.4529 
L 92.551385 18.630985 
L 92.784808 18.493538 
L 93.796923 17.70601 
L 94.355851 17.248 
L 95.042462 16.319682 
L 95.259255 16.002462 
L 95.702987 14.756923 
L 95.818909 13.511385 
L 95.656097 12.265846 
L 95.134638 11.020308 
L 95.042462 10.895023 
L 94.048487 9.774769 
L 93.796923 9.588648 
L 92.551385 8.869954 
L 91.604932 8.529231 
L 91.305846 8.430669 
L 90.060308 8.227254 
L 88.814769 8.285624 
L 87.979678 8.529231 
L 87.569231 8.63518 
L 86.323692 9.235793 
L 85.539484 9.774769 
L 85.078154 10.061671 
L 83.832615 10.954871 
L 83.742816 11.020308 
L 82.587077 11.788564 
L 81.770237 12.265846 
L 81.341538 12.506166 
L 80.096 13.039274 
L 78.850462 13.358274 
L 77.604923 13.399073 
L 76.359385 13.072973 
L 75.113846 12.279508 
L 75.099445 12.265846 
L 74.047562 11.020308 
L 73.868308 10.746487 
L 73.336944 9.774769 
L 72.794776 8.529231 
L 72.622769 8.064858 
L 72.329679 7.283692 
L 71.888348 6.038154 
L 71.405805 4.792615 
L 71.377231 4.72574 
L 70.679709 3.547077 
L 70.131692 2.922371 
L 69.154247 2.301538 
L 68.886154 2.177025 
L 67.640615 1.845294 
L 66.395077 1.695835 
L 65.149538 1.659133 
L 63.904 1.718505 
L 62.658462 1.896464 
L 61.412923 2.282113 
L 61.375546 2.301538 
L 60.253503 3.547077 
L 60.167385 4.187331 
L 60.115546 4.792615 
L 60.167385 5.083178 
L 60.32753 6.038154 
L 60.688305 7.283692 
L 61.079017 8.529231 
L 61.412923 9.699016 
L 61.43494 9.774769 
L 61.698265 11.020308 
L 61.783112 12.265846 
L 61.606808 13.511385 
L 61.412923 13.97687 
L 60.975634 14.756923 
L 60.167385 15.52202 
L 59.147873 16.002462 
L 58.921846 16.084903 
L 57.676308 16.231159 
L 56.430769 16.147837 
L 55.623123 16.002462 
L 55.185231 15.927641 
L 53.939692 15.662106 
L 52.694154 15.408894 
L 51.448615 15.245571 
L 50.203077 15.306958 
L 48.957538 15.906097 
L 48.8675 16.002462 
L 48.234595 17.248 
L 47.994038 18.493538 
L 47.956058 19.739077 
L 48.083917 20.984615 
L 48.425644 22.230154 
L 48.957538 23.180486 
L 49.179881 23.475692 
L 50.203077 24.304794 
L 50.907028 24.721231 
L 51.448615 24.970558 
L 52.694154 25.526986 
L 53.553229 25.966769 
L 53.939692 26.17016 
L 55.185231 27.074279 
L 55.323752 27.212308 
L 56.254649 28.457846 
L 56.430769 28.863248 
L 56.720472 29.703385 
L 56.851767 30.948923 
L 56.700062 32.194462 
L 56.430769 32.997514 
L 56.257521 33.44 
L 55.525413 34.685538 
L 55.185231 35.170135 
L 54.554063 35.931077 
L 53.939692 36.723379 
L 53.528464 37.176615 
L 52.724779 38.422154 
L 52.694154 38.515758 
L 52.250581 39.667692 
L 52.254308 40.913231 
L 52.694154 42.044864 
L 52.734628 42.158769 
L 53.62037 43.404308 
L 53.939692 43.712788 
L 54.978676 44.649846 
L 55.185231 44.811627 
L 56.430769 45.665292 
L 56.871704 45.895385 
L 57.676308 46.355317 
L 58.921846 46.804218 
L 60.167385 46.916991 
L 61.412923 46.522678 
L 62.094012 45.895385 
L 62.658462 45.380772 
L 63.164368 44.649846 
L 63.904 43.655955 
L 64.063235 43.404308 
L 64.978509 42.158769 
L 65.149538 41.951598 
L 66.051804 40.913231 
L 66.395077 40.550296 
L 67.360405 39.667692 
L 67.640615 39.415947 
L 68.886154 38.526153 
L 69.107601 38.422154 
L 70.131692 37.933205 
L 71.377231 37.719537 
L 72.622769 37.923322 
L 73.697191 38.422154 
L 73.868308 38.500493 
L 75.113846 39.320007 
L 75.573505 39.667692 
L 76.359385 40.22774 
L 77.278476 40.913231 
L 77.604923 41.15869 
L 78.850462 42.140434 
L 78.872743 42.158769 
L 80.096 43.304138 
L 80.199192 43.404308 
L 81.284569 44.649846 
L 81.341538 44.729181 
L 82.28298 45.895385 
L 82.587077 46.303531 
L 83.42402 47.140923 
L 83.832615 47.547931 
L 85.078154 48.306101 
L 85.318604 48.386462 
z
M 84.646582 44.649846 
L 83.832615 44.035603 
L 83.176634 43.404308 
L 82.587077 42.86597 
L 81.857098 42.158769 
L 81.341538 41.714671 
L 80.384289 40.913231 
L 80.096 40.692835 
L 78.850462 39.749874 
L 78.742764 39.667692 
L 77.604923 38.775978 
L 77.161743 38.422154 
L 76.359385 37.73273 
L 75.683607 37.176615 
L 75.113846 36.694168 
L 74.009403 35.931077 
L 73.868308 35.84041 
L 72.622769 35.32423 
L 71.377231 35.149102 
L 70.131692 35.326229 
L 68.886154 35.854705 
L 68.768811 35.931077 
L 67.640615 36.721985 
L 67.117873 37.176615 
L 66.395077 37.819477 
L 65.78208 38.422154 
L 65.149538 39.063344 
L 64.577596 39.667692 
L 63.904 40.429975 
L 63.459875 40.913231 
L 62.658462 41.845134 
L 62.327517 42.158769 
L 61.412923 43.019976 
L 60.703039 43.404308 
L 60.167385 43.673104 
L 58.921846 43.769943 
L 57.676308 43.414669 
L 57.658337 43.404308 
L 56.430769 42.520488 
L 56.08113 42.158769 
L 55.398492 40.913231 
L 55.283133 39.667692 
L 55.632868 38.422154 
L 56.291596 37.176615 
L 56.430769 36.9696 
L 57.079722 35.931077 
L 57.676308 34.87665 
L 57.777441 34.685538 
L 58.298252 33.44 
L 58.602909 32.194462 
L 58.707674 30.948923 
L 58.617524 29.703385 
L 58.325682 28.457846 
L 57.811608 27.212308 
L 57.676308 26.965322 
L 56.97825 25.966769 
L 56.430769 25.337521 
L 55.681208 24.721231 
L 55.185231 24.319737 
L 53.939692 23.555818 
L 53.796226 23.475692 
L 52.694154 22.684155 
L 52.120043 22.230154 
L 51.448615 21.32974 
L 51.239301 20.984615 
L 51.037738 19.739077 
L 51.448615 18.611707 
L 51.53729 18.493538 
L 52.694154 17.993907 
L 53.939692 17.936114 
L 55.185231 18.063365 
L 56.430769 18.223353 
L 57.676308 18.319407 
L 58.921846 18.265278 
L 60.167385 17.9661 
L 61.412923 17.324194 
L 61.511476 17.248 
L 62.658462 16.147996 
L 62.778067 16.002462 
L 63.468518 14.756923 
L 63.791976 13.511385 
L 63.846964 12.265846 
L 63.724788 11.020308 
L 63.499536 9.774769 
L 63.241412 8.529231 
L 63.048752 7.283692 
L 63.114885 6.038154 
L 63.884952 4.792615 
L 63.904 4.778957 
L 65.149538 4.368989 
L 66.395077 4.366735 
L 67.640615 4.718167 
L 67.76492 4.792615 
L 68.886154 5.66591 
L 69.17961 6.038154 
L 69.944956 7.283692 
L 70.131692 7.646371 
L 70.489504 8.529231 
L 70.983783 9.774769 
L 71.377231 10.641244 
L 71.539734 11.020308 
L 72.208929 12.265846 
L 72.622769 12.835775 
L 73.16345 13.511385 
L 73.868308 14.184228 
L 74.662429 14.756923 
L 75.113846 15.025486 
L 76.359385 15.476258 
L 77.604923 15.609519 
L 78.850462 15.471192 
L 80.096 15.109256 
L 80.89511 14.756923 
L 81.341538 14.567331 
L 82.587077 13.911182 
L 83.2468 13.511385 
L 83.832615 13.157626 
L 85.078154 12.382121 
L 85.287133 12.265846 
L 86.323692 11.694766 
L 87.569231 11.181976 
L 88.437605 11.020308 
L 88.814769 10.952557 
L 89.486274 11.020308 
L 90.060308 11.100535 
L 91.305846 11.8203 
L 91.737757 12.265846 
L 92.232201 13.511385 
L 92.128526 14.756923 
L 91.530152 16.002462 
L 91.305846 16.263624 
L 90.466212 17.248 
L 90.060308 17.606591 
L 89.133155 18.493538 
L 88.814769 18.768999 
L 87.826426 19.739077 
L 87.569231 19.998451 
L 86.692234 20.984615 
L 86.323692 21.448006 
L 85.735552 22.230154 
L 85.078154 23.267423 
L 84.948181 23.475692 
L 84.324748 24.721231 
L 83.897619 25.966769 
L 83.832615 26.357094 
L 83.691296 27.212308 
L 83.721828 28.457846 
L 83.832615 28.992734 
L 83.978868 29.703385 
L 84.408377 30.948923 
L 84.953285 32.194462 
L 85.078154 32.445915 
L 85.552251 33.44 
L 86.218325 34.685538 
L 86.323692 34.865688 
L 86.979949 35.931077 
L 87.569231 36.772088 
L 87.878516 37.176615 
L 88.814769 38.378814 
L 88.850261 38.422154 
L 89.692042 39.667692 
L 90.060308 40.454565 
L 90.263285 40.913231 
L 90.48107 42.158769 
L 90.344342 43.404308 
L 90.060308 44.060172 
L 89.654858 44.649846 
L 88.814769 45.308245 
L 87.569231 45.640498 
L 86.323692 45.501109 
L 85.078154 44.965879 
z
" style="fill:#51b051;"/>
   </g>
   <g id="PathCollection_2">
    <path clip-path="url(#pcf7bb5934c)" d="M 85.078154 44.965879 
L 86.323692 45.501109 
L 87.569231 45.640498 
L 88.814769 45.308245 
L 89.654858 44.649846 
L 90.060308 44.060172 
L 90.344342 43.404308 
L 90.48107 42.158769 
L 90.263285 40.913231 
L 90.060308 40.454565 
L 89.692042 39.667692 
L 88.850261 38.422154 
L 88.814769 38.378814 
L 87.878516 37.176615 
L 87.569231 36.772088 
L 86.979949 35.931077 
L 86.323692 34.865688 
L 86.218325 34.685538 
L 85.552251 33.44 
L 85.078154 32.445915 
L 84.953285 32.194462 
L 84.408377 30.948923 
L 83.978868 29.703385 
L 83.832615 28.992734 
L 83.721828 28.457846 
L 83.691296 27.212308 
L 83.832615 26.357094 
L 83.897619 25.966769 
L 84.324748 24.721231 
L 84.948181 23.475692 
L 85.078154 23.267423 
L 85.735552 22.230154 
L 86.323692 21.448006 
L 86.692234 20.984615 
L 87.569231 19.998451 
L 87.826426 19.739077 
L 88.814769 18.768999 
L 89.133155 18.493538 
L 90.060308 17.606591 
L 90.466212 17.248 
L 91.305846 16.263624 
L 91.530152 16.002462 
L 92.128526 14.756923 
L 92.232201 13.511385 
L 91.737757 12.265846 
L 91.305846 11.8203 
L 90.060308 11.100535 
L 89.486274 11.020308 
L 88.814769 10.952557 
L 88.437605 11.020308 
L 87.569231 11.181976 
L 86.323692 11.694766 
L 85.287133 12.265846 
L 85.078154 12.382121 
L 83.832615 13.157626 
L 83.2468 13.511385 
L 82.587077 13.911182 
L 81.341538 14.567331 
L 80.89511 14.756923 
L 80.096 15.109256 
L 78.850462 15.471192 
L 77.604923 15.609519 
L 76.359385 15.476258 
L 75.113846 15.025486 
L 74.662429 14.756923 
L 73.868308 14.184228 
L 73.16345 13.511385 
L 72.622769 12.835775 
L 72.208929 12.265846 
L 71.539734 11.020308 
L 71.377231 10.641244 
L 70.983783 9.774769 
L 70.489504 8.529231 
L 70.131692 7.646371 
L 69.944956 7.283692 
L 69.17961 6.038154 
L 68.886154 5.66591 
L 67.76492 4.792615 
L 67.640615 4.718167 
L 66.395077 4.366735 
L 65.149538 4.368989 
L 63.904 4.778957 
L 63.884952 4.792615 
L 63.114885 6.038154 
L 63.048752 7.283692 
L 63.241412 8.529231 
L 63.499536 9.774769 
L 63.724788 11.020308 
L 63.846964 12.265846 
L 63.791976 13.511385 
L 63.468518 14.756923 
L 62.778067 16.002462 
L 62.658462 16.147996 
L 61.511476 17.248 
L 61.412923 17.324194 
L 60.167385 17.9661 
L 58.921846 18.265278 
L 57.676308 18.319407 
L 56.430769 18.223353 
L 55.185231 18.063365 
L 53.939692 17.936114 
L 52.694154 17.993907 
L 51.53729 18.493538 
L 51.448615 18.611707 
L 51.037738 19.739077 
L 51.239301 20.984615 
L 51.448615 21.32974 
L 52.120043 22.230154 
L 52.694154 22.684155 
L 53.796226 23.475692 
L 53.939692 23.555818 
L 55.185231 24.319737 
L 55.681208 24.721231 
L 56.430769 25.337521 
L 56.97825 25.966769 
L 57.676308 26.965322 
L 57.811608 27.212308 
L 58.325682 28.457846 
L 58.617524 29.703385 
L 58.707674 30.948923 
L 58.602909 32.194462 
L 58.298252 33.44 
L 57.777441 34.685538 
L 57.676308 34.87665 
L 57.079722 35.931077 
L 56.430769 36.9696 
L 56.291596 37.176615 
L 55.632868 38.422154 
L 55.283133 39.667692 
L 55.398492 40.913231 
L 56.08113 42.158769 
L 56.430769 42.520488 
L 57.658337 43.404308 
L 57.676308 43.414669 
L 58.921846 43.769943 
L 60.167385 43.673104 
L 60.703039 43.404308 
L 61.412923 43.019976 
L 62.327517 42.158769 
L 62.658462 41.845134 
L 63.459875 40.913231 
L 63.904 40.429975 
L 64.577596 39.667692 
L 65.149538 39.063344 
L 65.78208 38.422154 
L 66.395077 37.819477 
L 67.117873 37.176615 
L 67.640615 36.721985 
L 68.768811 35.931077 
L 68.886154 35.854705 
L 70.131692 35.326229 
L 71.377231 35.149102 
L 72.622769 35.32423 
L 73.868308 35.84041 
L 74.009403 35.931077 
L 75.113846 36.694168 
L 75.683607 37.176615 
L 76.359385 37.73273 
L 77.161743 38.422154 
L 77.604923 38.775978 
L 78.742764 39.667692 
L 78.850462 39.749874 
L 80.096 40.692835 
L 80.384289 40.913231 
L 81.341538 41.714671 
L 81.857098 42.158769 
L 82.587077 42.86597 
L 83.176634 43.404308 
L 83.832615 44.035603 
L 84.646582 44.649846 
z
M 82.91669 39.667692 
L 82.587077 39.51151 
L 81.341538 38.783675 
L 80.769363 38.422154 
L 80.096 37.995781 
L 78.947255 37.176615 
L 78.850462 37.102566 
L 77.604923 36.019534 
L 77.506303 35.931077 
L 76.359385 34.915074 
L 76.064277 34.685538 
L 75.113846 34.039635 
L 73.868308 33.441348 
L 73.863988 33.44 
L 72.622769 33.100254 
L 71.377231 32.969935 
L 70.131692 33.051657 
L 68.886154 33.366253 
L 68.705403 33.44 
L 67.640615 33.956844 
L 66.548865 34.685538 
L 66.395077 34.803877 
L 65.149538 35.83745 
L 65.026658 35.931077 
L 63.904 36.92482 
L 63.574538 37.176615 
L 62.658462 38.001656 
L 62.077068 38.422154 
L 61.412923 38.969267 
L 60.167385 39.554951 
L 59.276768 38.422154 
L 59.556022 37.176615 
L 59.940827 35.931077 
L 60.167385 35.112653 
L 60.295843 34.685538 
L 60.566305 33.44 
L 60.68263 32.194462 
L 60.668812 30.948923 
L 60.534795 29.703385 
L 60.289183 28.457846 
L 60.167385 28.000314 
L 59.957677 27.212308 
L 59.543443 25.966769 
L 59.076455 24.721231 
L 58.921846 24.175022 
L 58.634154 23.475692 
L 58.544361 22.230154 
L 58.921846 21.792878 
L 59.700261 20.984615 
L 60.167385 20.766916 
L 61.412923 19.978553 
L 61.704281 19.739077 
L 62.658462 19.055936 
L 63.285662 18.493538 
L 63.904 17.893753 
L 64.524244 17.248 
L 65.149538 16.423798 
L 65.526027 16.002462 
L 66.322913 14.756923 
L 66.395077 14.568873 
L 67.243823 13.511385 
L 67.640615 12.844578 
L 68.886154 13.151873 
L 69.197859 13.511385 
L 70.131692 14.135297 
L 70.774302 14.756923 
L 71.377231 15.164949 
L 72.471273 16.002462 
L 72.622769 16.094599 
L 73.868308 16.836301 
L 74.763755 17.248 
L 75.113846 17.396625 
L 76.359385 17.737649 
L 77.604923 17.863844 
L 78.850462 17.780436 
L 80.096 17.497986 
L 80.798349 17.248 
L 81.341538 17.066696 
L 82.587077 16.58026 
L 83.75347 16.002462 
L 83.832615 15.966115 
L 85.078154 15.532956 
L 86.323692 15.306474 
L 87.00778 16.002462 
L 86.485969 17.248 
L 86.323692 17.452934 
L 85.592842 18.493538 
L 85.078154 19.193348 
L 84.715133 19.739077 
L 83.903181 20.984615 
L 83.832615 21.093714 
L 83.128058 22.230154 
L 82.587077 23.291957 
L 82.499321 23.475692 
L 81.98828 24.721231 
L 81.638349 25.966769 
L 81.44883 27.212308 
L 81.435784 28.457846 
L 81.614879 29.703385 
L 81.990983 30.948923 
L 82.561274 32.194462 
L 82.587077 32.244706 
L 83.140274 33.44 
L 83.766798 34.685538 
L 83.832615 34.830815 
L 84.302265 35.931077 
L 84.867476 37.176615 
L 85.078154 37.677598 
L 85.408952 38.422154 
L 85.848857 39.667692 
L 85.078154 40.763375 
L 83.832615 40.171222 
z
" style="fill:#b7e07a;"/>
   </g>
   <g id="PathCollection_3">
    <path clip-path="url(#pcf7bb5934c)" d="M 83.832615 40.171222 
L 85.078154 40.763375 
L 85.848857 39.667692 
L 85.408952 38.422154 
L 85.078154 37.677598 
L 84.867476 37.176615 
L 84.302265 35.931077 
L 83.832615 34.830815 
L 83.766798 34.685538 
L 83.140274 33.44 
L 82.587077 32.244706 
L 82.561274 32.194462 
L 81.990983 30.948923 
L 81.614879 29.703385 
L 81.435784 28.457846 
L 81.44883 27.212308 
L 81.638349 25.966769 
L 81.98828 24.721231 
L 82.499321 23.475692 
L 82.587077 23.291957 
L 83.128058 22.230154 
L 83.832615 21.093714 
L 83.903181 20.984615 
L 84.715133 19.739077 
L 85.078154 19.193348 
L 85.592842 18.493538 
L 86.323692 17.452934 
L 86.485969 17.248 
L 87.00778 16.002462 
L 86.323692 15.306474 
L 85.078154 15.532956 
L 83.832615 15.966115 
L 83.75347 16.002462 
L 82.587077 16.58026 
L 81.341538 17.066696 
L 80.798349 17.248 
L 80.096 17.497986 
L 78.850462 17.780436 
L 77.604923 17.863844 
L 76.359385 17.737649 
L 75.113846 17.396625 
L 74.763755 17.248 
L 73.868308 16.836301 
L 72.622769 16.094599 
L 72.471273 16.002462 
L 71.377231 15.164949 
L 70.774302 14.756923 
L 70.131692 14.135297 
L 69.197859 13.511385 
L 68.886154 13.151873 
L 67.640615 12.844578 
L 67.243823 13.511385 
L 66.395077 14.568873 
L 66.322913 14.756923 
L 65.526027 16.002462 
L 65.149538 16.423798 
L 64.524244 17.248 
L 63.904 17.893753 
L 63.285662 18.493538 
L 62.658462 19.055936 
L 61.704281 19.739077 
L 61.412923 19.978553 
L 60.167385 20.766916 
L 59.700261 20.984615 
L 58.921846 21.792878 
L 58.544361 22.230154 
L 58.634154 23.475692 
L 58.921846 24.175022 
L 59.076455 24.721231 
L 59.543443 25.966769 
L 59.957677 27.212308 
L 60.167385 28.000314 
L 60.289183 28.457846 
L 60.534795 29.703385 
L 60.668812 30.948923 
L 60.68263 32.194462 
L 60.566305 33.44 
L 60.295843 34.685538 
L 60.167385 35.112653 
L 59.940827 35.931077 
L 59.556022 37.176615 
L 59.276768 38.422154 
L 60.167385 39.554951 
L 61.412923 38.969267 
L 62.077068 38.422154 
L 62.658462 38.001656 
L 63.574538 37.176615 
L 63.904 36.92482 
L 65.026658 35.931077 
L 65.149538 35.83745 
L 66.395077 34.803877 
L 66.548865 34.685538 
L 67.640615 33.956844 
L 68.705403 33.44 
L 68.886154 33.366253 
L 70.131692 33.051657 
L 71.377231 32.969935 
L 72.622769 33.100254 
L 73.863988 33.44 
L 73.868308 33.441348 
L 75.113846 34.039635 
L 76.064277 34.685538 
L 76.359385 34.915074 
L 77.506303 35.931077 
L 77.604923 36.019534 
L 78.850462 37.102566 
L 78.947255 37.176615 
L 80.096 37.995781 
L 80.769363 38.422154 
L 81.341538 38.783675 
L 82.587077 39.51151 
L 82.91669 39.667692 
z
M 63.740534 30.948923 
L 63.07241 29.703385 
L 62.658462 28.664094 
L 62.602142 28.457846 
L 62.284372 27.212308 
L 62.040734 25.966769 
L 61.951254 24.721231 
L 62.143884 23.475692 
L 62.658462 22.448956 
L 62.768323 22.230154 
L 63.775435 20.984615 
L 63.904 20.860419 
L 65.013868 19.739077 
L 65.149538 19.60936 
L 66.395077 18.533052 
L 66.458793 18.493538 
L 67.640615 17.736523 
L 68.886154 17.423028 
L 70.131692 17.553329 
L 71.377231 17.98661 
L 72.465005 18.493538 
L 72.622769 18.561427 
L 73.868308 19.140011 
L 75.113846 19.660744 
L 75.350421 19.739077 
L 76.359385 20.135202 
L 77.604923 20.583885 
L 78.565047 20.984615 
L 78.850462 21.23491 
L 79.506535 22.230154 
L 79.596218 23.475692 
L 79.476834 24.721231 
L 79.3017 25.966769 
L 79.119403 27.212308 
L 78.942264 28.457846 
L 78.850462 29.122095 
L 78.727736 29.703385 
L 78.255437 30.948923 
L 77.604923 31.530497 
L 76.359385 31.59498 
L 75.113846 31.429732 
L 73.868308 31.242766 
L 72.622769 31.091369 
L 71.377231 31.00385 
L 70.131692 31.000997 
L 68.886154 31.097314 
L 67.640615 31.291079 
L 66.395077 31.536767 
L 65.149538 31.672075 
L 63.904 31.185633 
z
" style="fill:#fffebe;"/>
   </g>
   <g id="PathCollection_4">
    <path clip-path="url(#pcf7bb5934c)" d="M 63.904 31.185633 
L 65.149538 31.672075 
L 66.395077 31.536767 
L 67.640615 31.291079 
L 68.886154 31.097314 
L 70.131692 31.000997 
L 71.377231 31.00385 
L 72.622769 31.091369 
L 73.868308 31.242766 
L 75.113846 31.429732 
L 76.359385 31.59498 
L 77.604923 31.530497 
L 78.255437 30.948923 
L 78.727736 29.703385 
L 78.850462 29.122095 
L 78.942264 28.457846 
L 79.119403 27.212308 
L 79.3017 25.966769 
L 79.476834 24.721231 
L 79.596218 23.475692 
L 79.506535 22.230154 
L 78.850462 21.23491 
L 78.565047 20.984615 
L 77.604923 20.583885 
L 76.359385 20.135202 
L 75.350421 19.739077 
L 75.113846 19.660744 
L 73.868308 19.140011 
L 72.622769 18.561427 
L 72.465005 18.493538 
L 71.377231 17.98661 
L 70.131692 17.553329 
L 68.886154 17.423028 
L 67.640615 17.736523 
L 66.458793 18.493538 
L 66.395077 18.533052 
L 65.149538 19.60936 
L 65.013868 19.739077 
L 63.904 20.860419 
L 63.775435 20.984615 
L 62.768323 22.230154 
L 62.658462 22.448956 
L 62.143884 23.475692 
L 61.951254 24.721231 
L 62.040734 25.966769 
L 62.284372 27.212308 
L 62.602142 28.457846 
L 62.658462 28.664094 
L 63.07241 29.703385 
L 63.740534 30.948923 
z
M 67.421909 28.457846 
L 66.395077 27.981099 
L 65.575827 27.212308 
L 65.149538 26.393954 
L 64.993469 25.966769 
L 64.897395 24.721231 
L 65.149538 23.613918 
L 65.183998 23.475692 
L 65.916704 22.230154 
L 66.395077 21.689683 
L 67.203319 20.984615 
L 67.640615 20.681502 
L 68.886154 20.216968 
L 70.131692 20.176289 
L 71.377231 20.459866 
L 72.622769 20.9361 
L 72.727373 20.984615 
L 73.868308 21.598244 
L 74.921354 22.230154 
L 75.113846 22.397241 
L 76.144306 23.475692 
L 76.359385 23.990989 
L 76.602217 24.721231 
L 76.608489 25.966769 
L 76.359385 26.9219 
L 76.255711 27.212308 
L 75.128144 28.457846 
L 75.113846 28.466614 
L 73.868308 28.838277 
L 72.622769 28.939623 
L 71.377231 28.925379 
L 70.131692 28.855777 
L 68.886154 28.738521 
L 67.640615 28.524978 
z
" style="fill:#fdbe73;"/>
   </g>
   <g id="PathCollection_5">
    <path clip-path="url(#pcf7bb5934c)" d="M 67.640615 28.524978 
L 68.886154 28.738521 
L 70.131692 28.855777 
L 71.377231 28.925379 
L 72.622769 28.939623 
L 73.868308 28.838277 
L 75.113846 28.466614 
L 75.128144 28.457846 
L 76.255711 27.212308 
L 76.359385 26.9219 
L 76.608489 25.966769 
L 76.602217 24.721231 
L 76.359385 23.990989 
L 76.144306 23.475692 
L 75.113846 22.397241 
L 74.921354 22.230154 
L 73.868308 21.598244 
L 72.727373 20.984615 
L 72.622769 20.9361 
L 71.377231 20.459866 
L 70.131692 20.176289 
L 68.886154 20.216968 
L 67.640615 20.681502 
L 67.203319 20.984615 
L 66.395077 21.689683 
L 65.916704 22.230154 
L 65.183998 23.475692 
L 65.149538 23.613918 
L 64.897395 24.721231 
L 64.993469 25.966769 
L 65.149538 26.393954 
L 65.575827 27.212308 
L 66.395077 27.981099 
L 67.421909 28.457846 
z
" style="fill:#e65337;"/>
   </g>
   <g id="LineCollection_1">
    <path clip-path="url(#pcf7bb5934c)" d="M 86.323692 48.752045 
L 87.569231 48.93072 
L 88.814769 48.892485 
L 90.060308 48.617309 
L 91.305846 48.009936 
L 92.220419 47.140923 
L 92.917209 45.895385 
L 93.248004 44.649846 
L 93.362906 43.404308 
L 93.308998 42.158769 
L 93.063548 40.913231 
L 92.533465 39.667692 
L 91.740753 38.422154 
L 88.814769 35.126145 
L 87.718659 33.44 
L 87.106584 32.194462 
L 86.229762 29.703385 
L 86.004384 28.457846 
L 85.976762 27.212308 
L 86.323692 25.531575 
L 86.606626 24.721231 
L 87.569231 23.019446 
L 88.814769 21.496091 
L 90.060308 20.36732 
L 94.355851 17.248 
L 95.259255 16.002462 
L 95.702987 14.756923 
L 95.818909 13.511385 
L 95.656097 12.265846 
L 95.042462 10.895023 
L 93.796923 9.588648 
L 92.551385 8.869954 
L 91.305846 8.430669 
L 90.060308 8.227254 
L 88.814769 8.285624 
L 87.569231 8.63518 
L 86.323692 9.235793 
L 81.770237 12.265846 
L 81.341538 12.506166 
L 80.096 13.039274 
L 78.850462 13.358274 
L 77.604923 13.399073 
L 76.359385 13.072973 
L 75.099445 12.265846 
L 73.868308 10.746487 
L 73.336944 9.774769 
L 72.329679 7.283692 
L 71.377231 4.72574 
L 70.679709 3.547077 
L 70.131692 2.922371 
L 68.886154 2.177025 
L 67.640615 1.845294 
L 66.395077 1.695835 
L 63.904 1.718505 
L 62.658462 1.896464 
L 61.375546 2.301538 
L 60.253503 3.547077 
L 60.115546 4.792615 
L 60.32753 6.038154 
L 61.698265 11.020308 
L 61.783112 12.265846 
L 61.606808 13.511385 
L 60.975634 14.756923 
L 60.167385 15.52202 
L 58.921846 16.084903 
L 57.676308 16.231159 
L 55.623123 16.002462 
L 51.448615 15.245571 
L 50.203077 15.306958 
L 48.8675 16.002462 
L 48.234595 17.248 
L 47.994038 18.493538 
L 47.956058 19.739077 
L 48.083917 20.984615 
L 48.425644 22.230154 
L 49.179881 23.475692 
L 50.203077 24.304794 
L 51.448615 24.970558 
L 53.939692 26.17016 
L 55.323752 27.212308 
L 56.430769 28.863248 
L 56.720472 29.703385 
L 56.851767 30.948923 
L 56.700062 32.194462 
L 56.257521 33.44 
L 55.185231 35.170135 
L 53.528464 37.176615 
L 52.694154 38.515758 
L 52.250581 39.667692 
L 52.254308 40.913231 
L 52.734628 42.158769 
L 53.939692 43.712788 
L 55.185231 44.811627 
L 56.871704 45.895385 
L 57.676308 46.355317 
L 58.921846 46.804218 
L 60.167385 46.916991 
L 61.412923 46.522678 
L 62.658462 45.380772 
L 65.149538 41.951598 
L 66.395077 40.550296 
L 67.640615 39.415947 
L 69.107601 38.422154 
L 70.131692 37.933205 
L 71.377231 37.719537 
L 72.622769 37.923322 
L 73.868308 38.500493 
L 76.359385 40.22774 
L 78.872743 42.158769 
L 80.199192 43.404308 
L 83.832615 47.547931 
L 85.318604 48.386462 
L 86.323692 48.752045 
L 86.323692 48.752045 
" style="fill:none;stroke:#000000;stroke-width:0.75;"/>
   </g>
   <g id="LineCollection_2">
    <path clip-path="url(#pcf7bb5934c)" d="M 85.078154 44.965879 
L 86.323692 45.501109 
L 87.569231 45.640498 
L 88.814769 45.308245 
L 89.654858 44.649846 
L 90.060308 44.060172 
L 90.344342 43.404308 
L 90.48107 42.158769 
L 90.263285 40.913231 
L 89.692042 39.667692 
L 87.878516 37.176615 
L 86.979949 35.931077 
L 85.552251 33.44 
L 84.408377 30.948923 
L 83.832615 28.992734 
L 83.721828 28.457846 
L 83.691296 27.212308 
L 83.897619 25.966769 
L 84.324748 24.721231 
L 85.078154 23.267423 
L 86.323692 21.448006 
L 87.569231 19.998451 
L 90.060308 17.606591 
L 90.466212 17.248 
L 91.530152 16.002462 
L 92.128526 14.756923 
L 92.232201 13.511385 
L 91.737757 12.265846 
L 91.305846 11.8203 
L 90.060308 11.100535 
L 88.814769 10.952557 
L 87.569231 11.181976 
L 86.323692 11.694766 
L 83.2468 13.511385 
L 81.341538 14.567331 
L 80.096 15.109256 
L 78.850462 15.471192 
L 77.604923 15.609519 
L 76.359385 15.476258 
L 74.662429 14.756923 
L 73.868308 14.184228 
L 73.16345 13.511385 
L 72.208929 12.265846 
L 70.983783 9.774769 
L 69.944956 7.283692 
L 68.886154 5.66591 
L 67.640615 4.718167 
L 66.395077 4.366735 
L 65.149538 4.368989 
L 63.884952 4.792615 
L 63.114885 6.038154 
L 63.048752 7.283692 
L 63.846964 12.265846 
L 63.791976 13.511385 
L 63.468518 14.756923 
L 62.658462 16.147996 
L 61.412923 17.324194 
L 60.167385 17.9661 
L 58.921846 18.265278 
L 57.676308 18.319407 
L 52.694154 17.993907 
L 51.448615 18.611707 
L 51.037738 19.739077 
L 51.239301 20.984615 
L 52.120043 22.230154 
L 53.939692 23.555818 
L 55.681208 24.721231 
L 56.430769 25.337521 
L 56.97825 25.966769 
L 57.811608 27.212308 
L 58.325682 28.457846 
L 58.617524 29.703385 
L 58.707674 30.948923 
L 58.602909 32.194462 
L 58.298252 33.44 
L 57.676308 34.87665 
L 55.632868 38.422154 
L 55.283133 39.667692 
L 55.398492 40.913231 
L 56.08113 42.158769 
L 56.430769 42.520488 
L 57.676308 43.414669 
L 58.921846 43.769943 
L 60.167385 43.673104 
L 61.412923 43.019976 
L 62.658462 41.845134 
L 65.149538 39.063344 
L 67.117873 37.176615 
L 67.640615 36.721985 
L 68.886154 35.854705 
L 70.131692 35.326229 
L 71.377231 35.149102 
L 72.622769 35.32423 
L 74.009403 35.931077 
L 75.683607 37.176615 
L 83.176634 43.404308 
L 83.832615 44.035603 
L 85.078154 44.965879 
L 85.078154 44.965879 
" style="fill:none;stroke:#000000;stroke-width:0.75;"/>
   </g>
   <g id="LineCollection_3">
    <path clip-path="url(#pcf7bb5934c)" d="M 83.832615 40.171222 
L 85.078154 40.763375 
L 85.848857 39.667692 
L 85.408952 38.422154 
L 85.078154 37.677598 
L 84.867476 37.176615 
L 84.302265 35.931077 
L 83.832615 34.830815 
L 83.766798 34.685538 
L 83.140274 33.44 
L 82.587077 32.244706 
L 82.561274 32.194462 
L 81.990983 30.948923 
L 81.614879 29.703385 
L 81.435784 28.457846 
L 81.44883 27.212308 
L 81.638349 25.966769 
L 81.98828 24.721231 
L 82.499321 23.475692 
L 82.587077 23.291957 
L 83.128058 22.230154 
L 83.832615 21.093714 
L 83.903181 20.984615 
L 84.715133 19.739077 
L 85.078154 19.193348 
L 85.592842 18.493538 
L 86.323692 17.452934 
L 86.485969 17.248 
L 87.00778 16.002462 
L 86.323692 15.306474 
L 85.078154 15.532956 
L 83.832615 15.966115 
L 83.75347 16.002462 
L 82.587077 16.58026 
L 81.341538 17.066696 
L 80.798349 17.248 
L 80.096 17.497986 
L 78.850462 17.780436 
L 77.604923 17.863844 
L 76.359385 17.737649 
L 75.113846 17.396625 
L 74.763755 17.248 
L 73.868308 16.836301 
L 72.622769 16.094599 
L 72.471273 16.002462 
L 71.377231 15.164949 
L 70.774302 14.756923 
L 70.131692 14.135297 
L 69.197859 13.511385 
L 68.886154 13.151873 
L 67.640615 12.844578 
L 67.243823 13.511385 
L 66.395077 14.568873 
L 66.322913 14.756923 
L 65.526027 16.002462 
L 65.149538 16.423798 
L 64.524244 17.248 
L 63.904 17.893753 
L 63.285662 18.493538 
L 62.658462 19.055936 
L 61.704281 19.739077 
L 61.412923 19.978553 
L 60.167385 20.766916 
L 59.700261 20.984615 
L 58.921846 21.792878 
L 58.544361 22.230154 
L 58.634154 23.475692 
L 58.921846 24.175022 
L 59.076455 24.721231 
L 59.543443 25.966769 
L 59.957677 27.212308 
L 60.167385 28.000314 
L 60.289183 28.457846 
L 60.534795 29.703385 
L 60.668812 30.948923 
L 60.68263 32.194462 
L 60.566305 33.44 
L 60.295843 34.685538 
L 60.167385 35.112653 
L 59.940827 35.931077 
L 59.556022 37.176615 
L 59.276768 38.422154 
L 60.167385 39.554951 
L 61.412923 38.969267 
L 62.077068 38.422154 
L 62.658462 38.001656 
L 63.574538 37.176615 
L 63.904 36.92482 
L 65.026658 35.931077 
L 65.149538 35.83745 
L 66.395077 34.803877 
L 66.548865 34.685538 
L 67.640615 33.956844 
L 68.705403 33.44 
L 68.886154 33.366253 
L 70.131692 33.051657 
L 71.377231 32.969935 
L 72.622769 33.100254 
L 73.863988 33.44 
L 73.868308 33.441348 
L 75.113846 34.039635 
L 76.064277 34.685538 
L 76.359385 34.915074 
L 77.506303 35.931077 
L 77.604923 36.019534 
L 78.850462 37.102566 
L 78.947255 37.176615 
L 80.096 37.995781 
L 80.769363 38.422154 
L 81.341538 38.783675 
L 82.587077 39.51151 
L 82.91669 39.667692 
L 83.832615 40.171222 
" style="fill:none;stroke:#000000;stroke-width:0.75;"/>
   </g>
   <g id="LineCollection_4">
    <path clip-path="url(#pcf7bb5934c)" d="M 63.904 31.185633 
L 65.149538 31.672075 
L 66.395077 31.536767 
L 67.640615 31.291079 
L 68.886154 31.097314 
L 70.131692 31.000997 
L 71.377231 31.00385 
L 72.622769 31.091369 
L 73.868308 31.242766 
L 75.113846 31.429732 
L 76.359385 31.59498 
L 77.604923 31.530497 
L 78.255437 30.948923 
L 78.727736 29.703385 
L 78.850462 29.122095 
L 78.942264 28.457846 
L 79.119403 27.212308 
L 79.3017 25.966769 
L 79.476834 24.721231 
L 79.596218 23.475692 
L 79.506535 22.230154 
L 78.850462 21.23491 
L 78.565047 20.984615 
L 77.604923 20.583885 
L 76.359385 20.135202 
L 75.350421 19.739077 
L 75.113846 19.660744 
L 73.868308 19.140011 
L 72.622769 18.561427 
L 72.465005 18.493538 
L 71.377231 17.98661 
L 70.131692 17.553329 
L 68.886154 17.423028 
L 67.640615 17.736523 
L 66.458793 18.493538 
L 66.395077 18.533052 
L 65.149538 19.60936 
L 65.013868 19.739077 
L 63.904 20.860419 
L 63.775435 20.984615 
L 62.768323 22.230154 
L 62.658462 22.448956 
L 62.143884 23.475692 
L 61.951254 24.721231 
L 62.040734 25.966769 
L 62.284372 27.212308 
L 62.602142 28.457846 
L 62.658462 28.664094 
L 63.07241 29.703385 
L 63.740534 30.948923 
L 63.904 31.185633 
" style="fill:none;stroke:#000000;stroke-width:0.75;"/>
   </g>
   <g id="LineCollection_5">
    <path clip-path="url(#pcf7bb5934c)" d="M 67.640615 28.524978 
L 68.886154 28.738521 
L 70.131692 28.855777 
L 71.377231 28.925379 
L 72.622769 28.939623 
L 73.868308 28.838277 
L 75.113846 28.466614 
L 75.128144 28.457846 
L 76.255711 27.212308 
L 76.359385 26.9219 
L 76.608489 25.966769 
L 76.602217 24.721231 
L 76.359385 23.990989 
L 76.144306 23.475692 
L 75.113846 22.397241 
L 74.921354 22.230154 
L 73.868308 21.598244 
L 72.727373 20.984615 
L 72.622769 20.9361 
L 71.377231 20.459866 
L 70.131692 20.176289 
L 68.886154 20.216968 
L 67.640615 20.681502 
L 67.203319 20.984615 
L 66.395077 21.689683 
L 65.916704 22.230154 
L 65.183998 23.475692 
L 65.149538 23.613918 
L 64.897395 24.721231 
L 64.993469 25.966769 
L 65.149538 26.393954 
L 65.575827 27.212308 
L 66.395077 27.981099 
L 67.421909 28.457846 
L 67.640615 28.524978 
" style="fill:none;stroke:#000000;stroke-width:0.75;"/>
   </g>
   <g id="LineCollection_6"/>
   <g id="text_1">
    <!-- ContourPy -->
    <g transform="translate(7.080187 69.843125)scale(0.28 -0.28)">
     <defs>
      <path d="M 54.296875 65 
Q 50.296875 67.203125 45.09375 68.296875 
Q 39.90625 69.40625 36.296875 69.40625 
Q 26.5 69.40625 19.046875 64.84375 
Q 11.59375 60.296875 7.546875 52.1875 
Q 3.5 44.09375 3.5 33.703125 
Q 3.5 23.703125 7.203125 15.75 
Q 10.90625 7.796875 18.203125 3.1875 
Q 25.5 -1.40625 35.796875 -1.40625 
Q 40.203125 -1.40625 45.640625 -0.203125 
Q 51.09375 1 54.90625 3 
L 50 12.59375 
Q 42.5 9.5 35.09375 9.5 
Q 29.5 9.5 25.390625 12.75 
Q 21.296875 16 19.140625 21.546875 
Q 17 27.09375 17 33.796875 
Q 17 41.296875 19.453125 46.890625 
Q 21.90625 52.5 26.203125 55.5 
Q 30.5 58.5 35.90625 58.5 
Q 39.296875 58.5 41.59375 58.046875 
Q 43.90625 57.59375 47.796875 56.40625 
L 50.296875 55.703125 
L 54.296875 65 
z
" id="Catamaran-Bold-67"/>
      <path d="M 54.296875 24.40625 
Q 54.296875 16.703125 51.09375 10.890625 
Q 47.90625 5.09375 42.046875 1.9375 
Q 36.203125 -1.203125 28.40625 -1.203125 
Q 20.59375 -1.203125 14.75 1.890625 
Q 8.90625 5 5.703125 10.75 
Q 2.5 16.5 2.5 24.203125 
Q 2.5 31.90625 5.703125 37.703125 
Q 8.90625 43.5 14.75 46.640625 
Q 20.59375 49.796875 28.40625 49.796875 
Q 36.203125 49.796875 42.046875 46.6875 
Q 47.90625 43.59375 51.09375 37.84375 
Q 54.296875 32.09375 54.296875 24.40625 
z
M 28.40625 9.90625 
Q 33.796875 9.90625 37.34375 14 
Q 40.90625 18.09375 40.90625 24.40625 
Q 40.90625 30.703125 37.40625 34.703125 
Q 33.90625 38.703125 28.40625 38.703125 
Q 23 38.703125 19.453125 34.59375 
Q 15.90625 30.5 15.90625 24.203125 
Q 15.90625 17.90625 19.40625 13.90625 
Q 22.90625 9.90625 28.40625 9.90625 
z
" id="Catamaran-Bold-111"/>
      <path d="M 18.5 33.59375 
Q 22.09375 36.203125 25.09375 37.75 
Q 28.09375 39.296875 31.5 39.296875 
Q 34.796875 39.296875 36.640625 36.796875 
Q 38.5 34.296875 38.5 29.796875 
L 38.5 0 
L 51.5 0 
L 51.5 30.40625 
Q 51.5 39.703125 47.796875 44.890625 
Q 44.09375 50.09375 34.90625 50.09375 
Q 30.90625 50.09375 25.796875 48.296875 
Q 20.703125 46.5 16.203125 43.296875 
L 14 48.5 
L 5.5 48.5 
L 5.5 0 
L 18.5 0 
z
" id="Catamaran-Bold-110"/>
      <path d="M 20.40625 48.40625 
L 20.40625 62.203125 
L 7.5 59.90625 
L 7.5 48.40625 
L 1 48.40625 
L 1 38.40625 
L 7.5 38.40625 
L 7.5 15.5 
Q 7.5 7.203125 12.59375 2.59375 
Q 17.703125 -2 26.796875 -2 
Q 29.203125 -2 32.140625 -1.09375 
Q 35.09375 -0.203125 36.59375 1 
L 32.796875 10.40625 
Q 30.09375 9.09375 27.5 9.09375 
Q 24.09375 9.09375 22.25 11.5 
Q 20.40625 13.90625 20.40625 17.796875 
L 20.40625 38.40625 
L 33.203125 38.40625 
L 29.203125 48.40625 
z
" id="Catamaran-Bold-116"/>
      <path d="M 38.09375 14.90625 
Q 34.5 12.296875 31.5 10.75 
Q 28.5 9.203125 25.09375 9.203125 
Q 21.796875 9.203125 19.9375 11.703125 
Q 18.09375 14.203125 18.09375 18.703125 
L 18.09375 48.5 
L 5.09375 48.5 
L 5.09375 18.09375 
Q 5.09375 8.796875 8.796875 3.59375 
Q 12.5 -1.59375 21.703125 -1.59375 
Q 25.703125 -1.59375 30.796875 0.203125 
Q 35.90625 2 40.40625 5.203125 
L 42.59375 0 
L 51.09375 0 
L 51.09375 48.5 
L 38.09375 48.5 
z
" id="Catamaran-Bold-117"/>
      <path d="M 18.5 29.59375 
Q 22.703125 33.296875 27.546875 35.6875 
Q 32.40625 38.09375 35.703125 38.09375 
L 33.09375 48.5 
Q 29.5 48.5 24.796875 46 
Q 20.09375 43.5 16.59375 40.40625 
L 12.296875 48.5 
L 5.5 48.5 
L 5.5 0 
L 18.5 0 
z
" id="Catamaran-Bold-114"/>
      <path d="M 21.40625 23.703125 
L 28.90625 23.703125 
Q 36.40625 23.703125 42.703125 26.140625 
Q 49 28.59375 52.84375 33.6875 
Q 56.703125 38.796875 56.703125 46.203125 
Q 56.703125 57.296875 49.25 62.640625 
Q 41.796875 68 29.796875 68 
L 8.5 68 
L 8.5 0 
L 21.40625 0 
z
M 29.40625 57.203125 
Q 36.09375 57.203125 39.546875 54.453125 
Q 43 51.703125 43 45.40625 
Q 42.59375 39.90625 39.09375 37.15625 
Q 35.59375 34.40625 29.59375 34.40625 
L 21.40625 34.40625 
L 21.40625 57.203125 
L 29.40625 57.203125 
z
" id="Catamaran-Bold-80"/>
      <path d="M 15.40625 -2.296875 
Q 14.296875 -5.296875 11.046875 -7.296875 
Q 7.796875 -9.296875 2.703125 -11.5 
L 7.296875 -22.203125 
Q 14 -20.59375 19.703125 -16.34375 
Q 25.40625 -12.09375 27.59375 -6.40625 
L 49.296875 48.5 
L 35.59375 48.5 
L 25 19.09375 
L 13.796875 50.296875 
L 1 46.5 
L 17.703125 3.40625 
L 15.40625 -2.296875 
z
" id="Catamaran-Bold-121"/>
     </defs>
     <use xlink:href="#Catamaran-Bold-67"/>
     <use x="56.399994" xlink:href="#Catamaran-Bold-111"/>
     <use x="113.199982" xlink:href="#Catamaran-Bold-110"/>
     <use x="169.799973" xlink:href="#Catamaran-Bold-116"/>
     <use x="207.899963" xlink:href="#Catamaran-Bold-111"/>
     <use x="264.699951" xlink:href="#Catamaran-Bold-117"/>
     <use x="321.299942" xlink:href="#Catamaran-Bold-114"/>
     <use x="357.999939" xlink:href="#Catamaran-Bold-80"/>
     <use x="417.199936" xlink:href="#Catamaran-Bold-121"/>
    </g>
   </g>
  </g>
 </g>
 <defs>
  <clipPath id="pcf7bb5934c">
   <rect height="79.2" width="48.576" x="47.712" y="0"/>
  </clipPath>
 </defs>
</svg>
